<?xml version="1.0" standalone="no"?>
<!DOCTYPE svg PUBLIC "-//W3C//DTD SVG 20010904//EN"
 "http://www.w3.org/TR/2001/REC-SVG-20010904/DTD/svg10.dtd">
<svg version="1.0" xmlns="http://www.w3.org/2000/svg"
 width="266.000000pt" height="266.000000pt" viewBox="0 0 266.000000 266.000000"
 preserveAspectRatio="xMidYMid meet">

<g transform="translate(0.000000,266.000000) scale(0.100000,-0.100000)"
fill="#000000" stroke="none">
<path d="M1150 2381 c0 -5 -27 -12 -60 -16 -33 -4 -60 -11 -60 -15 0 -4 -20
-11 -45 -14 -25 -4 -45 -11 -45 -16 0 -5 -13 -11 -30 -15 -16 -4 -30 -11 -30
-16 0 -5 -11 -9 -25 -9 -14 0 -28 -7 -31 -15 -4 -8 -17 -15 -30 -15 -14 0 -24
-6 -24 -14 0 -8 -13 -17 -30 -21 -16 -4 -30 -11 -30 -16 0 -5 -7 -9 -15 -9 -8
0 -15 -7 -15 -15 0 -8 -7 -15 -15 -15 -8 0 -15 -7 -15 -15 0 -8 -7 -15 -15
-15 -8 0 -15 -7 -15 -15 0 -8 -7 -15 -15 -15 -8 0 -15 -7 -15 -15 0 -8 -7 -15
-15 -15 -8 0 -15 -7 -15 -15 0 -8 -7 -15 -15 -15 -8 0 -15 -7 -15 -15 0 -8 -7
-15 -15 -15 -8 0 -15 -7 -15 -15 0 -8 -7 -15 -15 -15 -8 0 -15 -7 -15 -15 0
-8 -4 -15 -9 -15 -5 0 -12 -13 -16 -30 -4 -16 -13 -30 -21 -30 -8 0 -14 -10
-14 -24 0 -13 -7 -26 -15 -30 -8 -3 -15 -17 -15 -31 0 -14 -4 -25 -9 -25 -5 0
-12 -13 -16 -30 -4 -16 -10 -30 -15 -30 -5 0 -12 -20 -16 -45 -3 -25 -10 -45
-14 -45 -4 0 -11 -27 -15 -60 -4 -33 -11 -60 -16 -60 -5 0 -9 -80 -9 -180 0
-100 4 -180 9 -180 5 0 12 -27 16 -60 4 -33 11 -60 15 -60 4 0 11 -20 14 -45
4 -25 11 -45 16 -45 5 0 11 -14 15 -30 4 -17 11 -30 16 -30 5 0 9 -11 9 -25 0
-14 7 -28 15 -31 8 -4 15 -17 15 -30 0 -14 6 -24 14 -24 8 0 17 -14 21 -30 4
-17 11 -30 16 -30 5 0 9 -7 9 -15 0 -8 7 -15 15 -15 8 0 15 -7 15 -15 0 -8 7
-15 15 -15 8 0 15 -7 15 -15 0 -8 7 -15 15 -15 8 0 15 -7 15 -15 0 -8 7 -15
15 -15 8 0 15 -7 15 -15 0 -8 7 -15 15 -15 8 0 15 -7 15 -15 0 -8 7 -15 15
-15 8 0 15 -7 15 -15 0 -8 7 -15 15 -15 8 0 15 -7 15 -15 0 -8 7 -15 15 -15 8
0 15 -4 15 -9 0 -5 14 -12 30 -16 17 -4 30 -13 30 -21 0 -8 10 -14 24 -14 13
0 26 -7 30 -15 3 -8 17 -15 31 -15 14 0 25 -4 25 -10 0 -5 16 -12 35 -16 19
-3 35 -10 35 -15 0 -5 18 -12 40 -15 22 -4 40 -10 40 -14 0 -5 29 -12 65 -15
36 -4 65 -11 65 -16 0 -5 77 -9 170 -9 94 0 170 4 170 9 0 5 29 12 65 16 36 3
65 10 65 15 0 4 18 10 40 14 22 3 40 10 40 16 0 5 20 12 45 16 25 3 45 10 45
15 0 5 7 9 15 9 9 0 18 7 21 15 4 8 17 15 30 15 14 0 24 6 24 14 0 8 14 17 30
21 17 4 30 11 30 16 0 5 7 9 15 9 8 0 15 7 15 15 0 8 7 15 15 15 8 0 15 7 15
15 0 8 7 15 15 15 8 0 15 7 15 15 0 8 7 15 15 15 8 0 15 7 15 15 0 8 7 15 15
15 8 0 15 7 15 15 0 8 7 15 15 15 8 0 15 7 15 15 0 8 7 15 15 15 8 0 15 7 15
15 0 8 7 15 15 15 8 0 15 7 15 15 0 8 4 15 9 15 5 0 12 14 16 30 4 17 13 30
21 30 8 0 14 10 14 24 0 13 7 26 15 30 8 3 15 17 15 31 0 14 4 25 10 25 5 0
12 16 16 35 3 19 10 35 15 35 5 0 12 18 15 40 4 22 10 40 14 40 5 0 12 29 15
65 4 36 11 65 16 65 5 0 9 77 9 170 0 94 -4 170 -9 170 -5 0 -12 29 -16 65 -3
36 -10 65 -15 65 -4 0 -10 18 -14 40 -3 22 -10 40 -15 40 -5 0 -12 16 -15 35
-4 19 -11 35 -16 35 -6 0 -10 11 -10 25 0 14 -7 28 -15 31 -8 4 -15 17 -15 30
0 14 -6 24 -14 24 -8 0 -17 14 -21 30 -4 17 -11 30 -16 30 -5 0 -9 7 -9 15 0
8 -7 15 -15 15 -8 0 -15 7 -15 15 0 8 -7 15 -15 15 -8 0 -15 7 -15 15 0 8 -7
15 -15 15 -8 0 -15 7 -15 15 0 8 -7 15 -15 15 -8 0 -15 7 -15 15 0 8 -7 15
-15 15 -8 0 -15 7 -15 15 0 8 -7 15 -15 15 -8 0 -15 7 -15 15 0 8 -7 15 -15
15 -8 0 -15 7 -15 15 0 8 -7 15 -15 15 -8 0 -15 4 -15 9 0 5 -13 12 -30 16
-16 4 -30 13 -30 21 0 8 -10 14 -24 14 -13 0 -26 7 -30 15 -3 8 -12 15 -21 15
-8 0 -15 4 -15 9 0 5 -20 12 -45 15 -25 4 -45 11 -45 16 0 6 -18 13 -40 16
-22 4 -40 10 -40 14 0 5 -29 12 -65 15 -36 4 -65 11 -65 16 0 5 -79 9 -175 9
-97 0 -175 -4 -175 -9z m410 -446 c0 -8 6 -15 14 -15 17 0 30 -51 21 -81 -4
-11 -25 -38 -46 -59 -21 -21 -39 -43 -39 -49 0 -6 -7 -11 -15 -11 -8 0 -15 -7
-15 -15 0 -8 -7 -15 -15 -15 -8 0 -15 -7 -15 -15 0 -8 -7 -15 -15 -15 -8 0
-15 -7 -15 -15 0 -8 -7 -15 -15 -15 -8 0 -15 -7 -15 -15 0 -8 -7 -15 -15 -15
-8 0 -15 -7 -15 -15 0 -8 -7 -15 -15 -15 -8 0 -15 -7 -15 -15 0 -8 -7 -15 -15
-15 -8 0 -15 -7 -15 -15 0 -8 -7 -15 -15 -15 -8 0 -15 -7 -15 -15 0 -8 -7 -15
-15 -15 -8 0 -15 -7 -15 -15 0 -8 -7 -15 -15 -15 -8 0 -15 -7 -15 -15 0 -8 -7
-15 -15 -15 -8 0 -15 -7 -15 -15 0 -8 -7 -15 -15 -15 -8 0 -15 -7 -15 -15 0
-8 -7 -15 -15 -15 -10 0 -15 -10 -15 -30 0 -20 5 -30 15 -30 8 0 15 -7 15 -15
0 -8 7 -15 15 -15 8 0 15 -7 15 -15 0 -8 7 -15 15 -15 8 0 15 -7 15 -15 0 -8
7 -15 15 -15 8 0 15 -7 15 -15 0 -8 7 -15 15 -15 8 0 15 -7 15 -15 0 -8 7 -15
15 -15 8 0 15 -7 15 -15 0 -8 7 -15 15 -15 8 0 15 -7 15 -15 0 -8 7 -15 15
-15 8 0 15 -7 15 -15 0 -8 7 -15 15 -15 8 0 15 -7 15 -15 0 -8 7 -15 15 -15 8
0 15 -7 15 -15 0 -8 7 -15 15 -15 8 0 15 -7 15 -15 0 -8 7 -15 15 -15 8 0 15
-7 15 -15 0 -8 7 -15 15 -15 8 0 15 -5 15 -11 0 -6 20 -31 45 -56 26 -26 45
-54 45 -66 0 -38 -12 -67 -26 -67 -8 0 -14 -7 -14 -15 0 -12 -13 -15 -55 -15
-42 0 -55 3 -55 15 0 8 -7 15 -15 15 -8 0 -15 7 -15 15 0 8 -7 15 -15 15 -8 0
-15 7 -15 15 0 8 -7 15 -15 15 -8 0 -15 7 -15 15 0 8 -7 15 -15 15 -8 0 -15 7
-15 15 0 8 -7 15 -15 15 -8 0 -15 7 -15 15 0 8 -7 15 -15 15 -8 0 -15 7 -15
15 0 8 -7 15 -15 15 -8 0 -15 7 -15 15 0 8 -7 15 -15 15 -8 0 -15 7 -15 15 0
8 -7 15 -15 15 -8 0 -15 7 -15 15 0 8 -7 15 -15 15 -8 0 -15 7 -15 15 0 8 -7
15 -15 15 -8 0 -15 5 -15 11 0 14 -85 99 -99 99 -6 0 -11 7 -11 15 0 8 -7 15
-15 15 -8 0 -15 7 -15 15 0 8 -7 15 -15 15 -8 0 -15 7 -15 15 0 8 -7 15 -15
15 -8 0 -15 7 -15 15 0 9 -7 18 -15 21 -10 4 -15 21 -15 54 0 33 5 50 15 54 8
3 15 12 15 21 0 8 7 15 15 15 8 0 15 7 15 15 0 8 7 15 15 15 8 0 15 7 15 15 0
8 7 15 15 15 8 0 15 7 15 15 0 8 7 15 15 15 8 0 15 7 15 15 0 8 5 15 11 15 14
0 69 55 69 69 0 6 7 11 15 11 8 0 15 7 15 15 0 8 7 15 15 15 8 0 15 7 15 15 0
8 7 15 15 15 8 0 15 7 15 15 0 8 7 15 15 15 8 0 15 7 15 15 0 8 7 15 15 15 8
0 15 7 15 15 0 8 7 15 15 15 8 0 15 7 15 15 0 8 7 15 15 15 8 0 15 7 15 15 0
8 7 15 15 15 8 0 15 7 15 15 0 8 7 15 15 15 8 0 15 7 15 15 0 8 7 15 15 15 8
0 15 7 15 15 0 8 7 15 15 15 8 0 15 7 15 15 0 12 13 15 55 15 42 0 55 -3 55
-15z"/>
</g>
</svg>
