<?xml version="1.0" encoding="UTF-8"?>
<svg version="1.1" viewBox="0 0 1600 1600" width="1280" height="1280" xmlns="http://www.w3.org/2000/svg">
<path transform="translate(103,106)" d="m0 0h112l1 4h25v2h2v2c0.83 0.03 1.66 0.05 2.52 0.08 1.09 0.05 2.17 0.11 3.29 0.17 1.08 0.05 2.16 0.09 3.27 0.14 3.54 0.74 3.98 1.7 5.92 4.61 1.94 0.55 3.89 1.09 5.87 1.51 4.7 1.08 8.38 2.36 11.1 6.49 3.05 1.21 3.05 1.21 6 2v4h5l1 2c0.58 0.27 1.15 0.54 1.75 0.81 2.99 1.58 4.93 3.75 7.25 6.19l5 5v3c0.56 0.06 1.11 0.12 1.69 0.19 3.41 1.2 5.02 3.03 7.31 5.81 0.74 2.31 1.42 4.64 2 7l2 2c0.4 1.39 0.4 1.39 0.81 2.81 1.4 3.75 3.28 5.5 6.19 8.19 2 3 2 3 2.44 6.06 0.18 0.97 0.37 1.94 0.56 2.94l3 2c0.7 3.07 1.01 6.12 1.38 9.25 0.36 3.08 0.36 3.08 3.62 4.75 0.29 2.6 0.29 2.6 0.19 5.62-0.03 1.01-0.06 2.01-0.08 3.04-0.06 1.16-0.06 1.16-0.11 2.34 0.64 0.14 1.28 0.29 1.94 0.44 2.06 0.56 2.06 0.56 3.06 1.56 0.24 2.81 0.38 5.62 0.52 8.43 0.16 0.85 0.32 1.7 0.48 2.57l3 2c0.46 3.1 0.5 6.12 0.59 9.25 0.14 0.91 0.27 1.81 0.41 2.75l3 2c0.69 2.81 1.01 5.6 1.38 8.47 0.4 2.87 0.4 2.87 3.62 4.53 0.22 2.79 0.28 5.35 0.19 8.12-0.02 0.76-0.03 1.51-0.04 2.29-0.04 1.86-0.09 3.73-0.15 5.59l4 1c0.01 0.76 0.03 1.52 0.04 2.3 0.05 0.99 0.1 1.99 0.15 3.01 0.03 0.99 0.07 1.97 0.1 2.99 0.24 0.89 0.47 1.78 0.71 2.7 0.84 0.44 1.67 0.89 2.53 1.34 0.82 0.55 1.63 1.1 2.47 1.66 0.38 2.94 0.48 5.28 0.31 8.19-0.02 0.75-0.04 1.5-0.07 2.27-0.05 1.85-0.14 3.69-0.24 5.54 0.99 0.33 1.98 0.66 3 1v12l4 2c1.43 4.29 1.33 8.57 1.52 13.1 0.16 0.96 0.32 1.93 0.48 2.93l3 2c0.37 2.57 0.37 2.57 0.44 5.69 0.21 3.92 0.38 6.67 2.62 9.93 2.61 4.54 2.31 8.27 1.94 13.4l4 1c0.04 0.96 0.07 1.93 0.11 2.92 0.07 1.27 0.13 2.53 0.2 3.83 0.06 1.25 0.12 2.51 0.18 3.8 0.54 3.64 1.31 4.66 3.51 7.45 0.66 3.1 1.01 6.17 1.38 9.32 0.37 3.01 0.37 3.01 3.62 4.68 0.29 2.6 0.29 2.6 0.19 5.62-0.03 1.01-0.06 2.01-0.08 3.04-0.06 1.16-0.06 1.16-0.11 2.34 0.65 0.23 1.3 0.46 1.97 0.69 1.01 0.65 1.01 0.65 2.03 1.31 0.43 2.28 0.43 2.28 0.44 4.94 0.09 2.67 0.09 2.67 0.56 5.06 2.43 1.99 2.43 1.99 5 3v3c1.05 0.27 2.1 0.54 3.19 0.81 3.39 1.06 5.88 2.24 8.81 4.19l2-4c5.8-0.02 11.6-0.04 17.4-0.05 1.97-0.01 3.95-0.02 5.92-0.03 2.84-0.01 5.67-0.01 8.51-0.02 0.88 0 1.77-0.01 2.68-0.01 6.25 0 6.25 0 8.48 1.11v3h66l2-4c86.5-0.02 173-0.03 260-0.04h3.88c27.1-0.01 54.3-0.01 81.4-0.01h40.9c2.06 0 4.12-0.01 6.17-0.01 31.7 0 63.3 0 95-0.01h2.06c11 0 22 0 33-0.01 45.9-0.01 91.8-0.01 138-0.01h19.1c1.88 0 1.88 0 3.8-0.01 20.3 0 40.5 0 60.8-0.01h61c12.1 0 24.2 0 36.3-0.01h24.2 13.8c4.18-0.01 8.36-0.01 12.5 0 1.51 0 3.02 0 4.54-0.01 2.03 0 4.07 0 6.11 0.01h3.43c2.64 0.12 2.64 0.12 4.64 1.12v2l25 1 2 4h2c0.39 0.78 0.78 1.57 1.19 2.38 2.44 3.53 4.74 3.64 8.81 4.62l1 2c0.8 0.23 1.61 0.45 2.44 0.69 2.56 1.31 2.56 1.31 3.75 4.69 0.4 1.79 0.4 1.79 0.81 3.62 1.36 3.58 2.58 4.41 6 6 0.07 5.52 0.13 11 0.16 16.6 0.02 1.88 0.04 3.76 0.07 5.64 0.03 2.69 0.05 5.39 0.06 8.08 0.02 0.85 0.03 1.69 0.05 2.56 0 2.36 0 2.36-0.34 6.17l-3 2c-0.96 2.66-1.15 5.23-1.25 8.04-0.03 0.74-0.06 1.49-0.1 2.26-0.06 1.56-0.11 3.12-0.17 4.68-0.26 5.8-0.26 5.8-2.48 8.02-0.3 2.37-0.5 4.74-0.62 7.12-0.12 1.93-0.12 1.93-0.23 3.89-0.05 0.99-0.1 1.97-0.15 2.99l-5 1c-0.06 1.37-0.06 1.37-0.11 2.77-0.07 1.19-0.13 2.38-0.2 3.61-0.06 1.18-0.12 2.36-0.18 3.58-0.17 1-0.34 2.01-0.51 3.04l-3 2c-0.31 2.72-0.47 5.27-0.5 8s-0.19 5.28-0.5 8l-3 2c-0.54 2.59-0.92 5-1.19 7.62-0.08 0.71-0.16 1.42-0.25 2.15-0.2 1.74-0.38 3.48-0.56 5.23-0.99 0.33-1.98 0.66-3 1-0.06 1.37-0.06 1.37-0.11 2.77-0.07 1.19-0.13 2.38-0.2 3.61-0.06 1.18-0.12 2.36-0.18 3.58-0.17 1-0.34 2.01-0.51 3.04l-3 2c-0.51 3.02-0.51 3.02-0.56 6.44-0.23 6.25-0.23 6.25-2.44 9.56h-2c-0.06 1.81-0.06 1.81-0.11 3.65-0.07 1.57-0.14 3.15-0.2 4.73-0.03 0.79-0.05 1.58-0.07 2.4-0.1 2.08-0.35 4.15-0.62 6.22l-3 2c-0.59 3.12-0.59 3.12-0.69 6.62-0.06 1.19-0.13 2.38-0.2 3.61-0.03 0.91-0.07 1.83-0.11 2.77-0.99 0.33-1.98 0.66-3 1-0.12 1.13-0.24 2.26-0.37 3.43-0.17 1.48-0.34 2.96-0.51 4.45-0.11 1.11-0.11 1.11-0.23 2.26-0.66 5.63-0.66 5.63-2.89 7.86-0.31 3.09-0.38 6.15-0.46 9.25-0.18 0.91-0.36 1.82-0.54 2.75-0.97 0.45-0.97 0.45-1.97 0.91-0.67 0.36-1.34 0.72-2.03 1.09-0.58 2.59-0.92 4.88-1.12 7.5-0.64 7.26-0.64 7.26-2.88 9.5-0.5 3.41-0.84 6.8-1.12 10.2-0.2 1.94-0.53 3.86-0.88 5.77l-3 2c-0.47 2.54-0.79 4.94-1 7.5s-0.53 4.96-1 7.5l-3 2c-0.47 2.82-0.47 2.82-0.5 6-0.09 3.25-0.09 3.25-0.5 6l-3 2c-0.42 3.55-0.44 7.04-0.5 10.6-0.5 3.38-0.5 3.38-2.5 5.35-2.86 2.9-2.56 5.8-2.56 9.65-0.02 2.52-0.16 4.87-0.44 7.38l-3 2c-0.47 2.82-0.47 2.82-0.5 6-0.09 3.25-0.09 3.25-0.5 6l-3 2c-0.5 2.51-0.83 4.84-1.06 7.38-0.69 7.14-0.69 7.14-1.98 9.65-1.9 3.89-1.32 8.59-1.42 12.8-0.18 1.03-0.36 2.06-0.54 3.12-1.32 0.7-2.65 1.37-4 2-0.92 2.87-0.92 2.87-1.25 6.12-0.15 1.1-0.3 2.2-0.45 3.33-0.1 0.84-0.2 1.68-0.3 2.55-0.99 0.33-1.98 0.66-3 1l-1 16h-3c-0.09 1.14-0.09 1.14-0.18 2.3-0.13 1.49-0.13 1.49-0.26 3.01-0.08 0.99-0.16 1.97-0.24 2.99-0.32 2.7-0.32 2.7-1.32 5.7h-2c-0.04 0.63-0.09 1.25-0.14 1.9-0.21 2.82-0.44 5.65-0.67 8.48-0.07 0.98-0.14 1.96-0.22 2.98-0.12 1.41-0.12 1.41-0.24 2.85-0.07 0.87-0.14 1.74-0.21 2.64-0.52 2.15-0.52 2.15-3.52 4.15-0.47 2.29-0.47 2.29-0.5 4.88-0.15 4.15-0.94 5.89-3.5 9.12-1.24 3.47-1.31 7.1-1.56 10.8-0.13 1.76-0.13 1.76-0.26 3.55-0.06 0.89-0.12 1.78-0.18 2.7-0.99 0.33-1.98 0.66-3 1-0.06 1.26-0.06 1.26-0.11 2.55-0.07 1.1-0.13 2.2-0.2 3.33-0.06 1.09-0.12 2.18-0.18 3.3-0.17 0.93-0.34 1.86-0.51 2.82l-3 2c-1.43 4.29-1.39 8.57-1.62 13.1-0.38 2.93-0.38 2.93-2.38 4.93-0.26 3.21-0.37 6.37-0.39 9.59-0.07 2-0.07 2-0.61 5.41-1.97 1.12-1.97 1.12-4 2-0.81 2.57-0.81 2.57-1.06 5.5-0.35 2.97-0.35 2.97-0.94 5.5l-3 2c-0.58 2.89-0.58 2.89-0.69 6.12-0.06 1.1-0.13 2.2-0.2 3.33-0.05 1.26-0.05 1.26-0.11 2.55h-4c-0.04 0.92-0.07 1.83-0.11 2.77-0.07 1.19-0.13 2.38-0.2 3.61-0.06 1.18-0.12 2.36-0.18 3.58-0.17 1-0.34 2.01-0.51 3.04l-3 2c-0.36 1.98-0.36 1.98-0.19 4.12 0.06 1.28 0.13 2.56 0.19 3.88l-4 1-1 7-4 1-1 7c-0.99 0.33-1.98 0.66-3 1l-1 5h-3l-2 8h-2l-1 5h-5l-2 5h-2v3h-4c-0.08 0.78-0.16 1.57-0.25 2.38-0.25 0.86-0.49 1.73-0.75 2.62-1.94 1.06-1.94 1.06-4 2-1.09 1.93-1.09 1.93-2 4-1.38 1.75-1.38 1.75-3 3h-4l-1 5c-1.98-0.33-3.96-0.66-6-1-0.25 0.62-0.49 1.24-0.75 1.88-1.48 2.52-2.66 2.91-5.25 4.12l-2 3c-2.33 0.69-4.66 1.36-7 2l-1 2c-1.13 0.14-2.27 0.29-3.44 0.44-1.17 0.18-2.35 0.37-3.56 0.56l-2 3c-2.81 0.69-5.6 1.01-8.47 1.38-2.87 0.4-2.87 0.4-4.53 3.62-3.27 0.48-3.27 0.48-7.25 0.62-4.67 0.2-9.15 0.51-13.8 1.38v2c-30.2 1.02-60.3 1.15-90.5 1.13h-21.1c-13.8 0.01-27.5 0.01-41.3 0.01-12-0.01-24.1-0.01-36.1-0.01h-2.44c-3.26 0-6.52 0-9.78 0.01-30.5 0-61 0-91.4-0.01h-81c-30.4 0.01-60.9 0.01-91.4 0h-9.76-2.42c-12 0-24.1 0-36.1 0.01-13.7 0-27.4 0-41-0.01h-20.9c-6.39 0.01-12.8 0-19.2 0h-6.89c-12 0.01-24.1-0.11-36.1-0.45-1.13-0.02-2.25-0.04-3.41-0.07-1.04-0.03-2.08-0.07-3.15-0.1-0.92-0.03-1.84-0.05-2.78-0.08-0.73-0.14-1.47-0.28-2.22-0.43l-2-3c-2.56-0.31-4.94-0.47-7.5-0.5s-4.94-0.19-7.5-0.5l-2-3c-2.81-0.69-2.81-0.69-6-1-3.25-0.38-3.25-0.38-6-1l-2-3c-1.09-0.14-2.19-0.29-3.31-0.44-4.19-0.64-5.56-1.84-8.69-4.56-1.66-0.69-3.32-1.36-5-2l-2-2c-0.87-0.83-1.73-1.65-2.62-2.5-2.38-2.5-2.38-2.5-2.38-4.5-1.01-0.29-1.01-0.29-2.05-0.59-1.33-0.39-1.33-0.39-2.7-0.79-0.88-0.25-1.76-0.51-2.67-0.77-2.38-0.78-4.46-1.5-6.58-2.85-0.75-3.12-0.75-3.12-1-6h-3v-2h-2c-1.25-1.45-2.5-2.91-3.69-4.41-1.4-1.77-1.4-1.77-3.62-3.84-1.69-1.75-1.69-1.75-1.69-3.75l-4-1c0.1-0.72 0.21-1.44 0.31-2.19-0.43-3.92-2.48-5.2-5.31-7.81v-2h-2c-0.25-1.11-0.5-2.23-0.75-3.38-0.41-1.19-0.82-2.39-1.25-3.62-0.68-0.33-1.36-0.66-2.06-1-0.64-0.33-1.28-0.66-1.94-1-0.75-3.62-0.75-3.62-1-7-0.99-0.33-1.98-0.66-3-1-0.88-2.25-0.88-2.25-1.56-5-0.64-2.68-0.64-2.68-1.44-5l-2-1c-0.63-2.07-0.63-2.07-1.12-4.56-0.17-0.83-0.34-1.66-0.51-2.51-0.12-0.63-0.25-1.27-0.37-1.93h-2c-1.2-2.41-1.1-3.95-1.06-6.62 0.01-0.82 0.02-1.64 0.02-2.48 0.02-0.94 0.02-0.94 0.04-1.9l-4-1c-0.04-0.83-0.07-1.66-0.11-2.52-0.07-1.09-0.13-2.17-0.2-3.29-0.06-1.08-0.12-2.16-0.18-3.27-0.57-3.25-1.18-3.78-3.51-5.92-0.66-2.19-0.66-2.19-1.06-4.56-0.59-3.64-0.59-3.64-2.94-6.44-0.56-1.96-1.06-3.95-1.5-5.94-0.82-3.67-1.39-5.9-3.5-9.06-0.4-2.3-0.73-4.62-1-6.94-0.5-4.22-1.09-7.31-3-11.1-0.41-2.8-0.41-2.8-0.62-5.75-0.12-1.48-0.12-1.48-0.23-2.98-0.05-0.75-0.1-1.5-0.15-2.27-0.99-0.33-1.98-0.66-3-1-1.35-2.7-1.34-5.12-1.56-8.12-0.13-1.65-0.13-1.65-0.26-3.33-0.06-0.84-0.12-1.68-0.18-2.55h-2c-2-2-2-2-2.2-5.48 0.02-1.38 0.04-2.76 0.08-4.14 0-0.71 0.01-1.42 0.02-2.15 0.03-1.74 0.06-3.49 0.1-5.23h-3c-1.35-2.7-1.34-5.12-1.56-8.12-0.13-1.65-0.13-1.65-0.26-3.33-0.06-0.84-0.12-1.68-0.18-2.55h-2v-2h-2v-15h-3c-1.35-2.7-1.34-5.12-1.56-8.12-0.13-1.65-0.13-1.65-0.26-3.33-0.06-0.84-0.12-1.68-0.18-2.55-0.99-0.33-1.98-0.66-3-1l-1-11-4-1c-0.04-1.2-0.07-2.41-0.11-3.65-0.07-1.57-0.14-3.15-0.2-4.73-0.03-0.79-0.05-1.58-0.07-2.4-0.1-2.08-0.35-4.15-0.62-6.22l-3-2c-0.41-2.28-0.41-2.28-0.5-4.94-0.03-2.62-0.03-2.62-0.5-5.06-0.74-0.65-0.74-0.65-1.5-1.31-2.77-3.12-1.94-7.96-1.94-12-0.02-2.38-0.02-2.38-0.56-5.72-1.95-1.23-1.95-1.23-4-2-0.47-2.24-0.47-2.24-0.5-4.88 0.04-2.61 0.04-2.61-0.5-5.12-1-0.91-1-0.91-2.02-1.84-2.4-2.62-2.4-4.35-2.33-7.84 0.05-1.03 0.05-1.03 0.1-2.07 0.02-0.7 0.04-1.39 0.05-2.11 0.05-1.72 0.12-3.43 0.2-5.14l-4-1c-0.04-0.83-0.07-1.66-0.11-2.52-0.07-1.09-0.13-2.17-0.2-3.29-0.06-1.08-0.12-2.16-0.18-3.27-0.57-3.25-1.21-3.77-3.51-5.92-0.37-2.12-0.37-2.12-0.44-4.44-0.2-3.69-0.2-3.69-2.5-6.5-2.89-2.89-2.98-5.76-3.57-9.72-0.39-2.6-0.39-2.6-2.49-5.34-0.41-1.9-0.41-1.9-0.63-4.01-0.13-1.14-0.13-1.14-0.26-2.3-0.08-0.78-0.15-1.57-0.23-2.38-0.09-0.79-0.18-1.59-0.27-2.41-0.21-1.97-0.41-3.93-0.61-5.9-0.99-0.33-1.98-0.66-3-1l-1-16h-2c-1.34-4.84-2.25-8.93-2-14-0.99-0.33-1.98-0.66-3-1v-10l-4-2c-1.59-3.17-1.38-6.64-1.56-10.1-0.05-0.76-0.09-1.51-0.13-2.29-0.11-1.86-0.21-3.73-0.31-5.59l-4-1c-0.12-0.84-0.24-1.69-0.37-2.55-0.16-1.1-0.33-2.2-0.51-3.33-0.16-1.09-0.32-2.18-0.49-3.3-0.39-2.94-0.39-2.94-2.63-4.82-0.27-2.46-0.27-2.46-0.38-5.38-0.34-4.88-1.05-6.28-4.62-9.62-0.41-2.34-0.56-4.6-0.63-6.98-0.12-0.66-0.24-1.33-0.37-2.02l-3-2c-0.39-3.44-0.49-6.78-0.53-10.2-0.06-1.93-0.26-3.85-0.47-5.77l-3-2c-0.62-2.86-0.62-2.86-1-6.31-0.53-4.81-1.53-7.59-4-11.7-0.41-2.88-0.5-5.67-0.59-8.57-0.14-0.8-0.27-1.61-0.41-2.43l-3-2c-0.51-2.82-0.51-2.82-0.69-6.12-0.06-1.1-0.13-2.2-0.2-3.33-0.03-0.84-0.07-1.68-0.11-2.55h-3c-1.91-3.83-1.36-8.59-1.52-12.8-0.16-1.05-0.32-2.11-0.48-3.19l-3-2c-0.42-3.62-0.44-7.17-0.5-10.8-0.16-1.05-0.33-2.11-0.5-3.19l-4-2v-15h-3c-1.45-4.54-2.24-8.18-2-13h-2c-0.27-1-0.53-2-0.8-3.03-0.36-1.3-0.72-2.6-1.08-3.91-0.17-0.66-0.34-1.32-0.52-2-0.47-1.7-1.03-3.38-1.6-5.06l-2-1c-0.3-3.16-0.42-6.28-0.48-9.45-0.05-3.93-0.05-3.93-1.99-7.18-0.76-0.68-0.76-0.68-1.53-1.37-0.67-2.83-1.01-5.62-1.38-8.5-0.41-2.85-0.41-2.85-3.62-4.5-0.66-2.71-0.66-2.71-1.06-5.94-0.5-3.87-0.74-5.76-2.94-9.06-0.29-2.39-0.49-4.79-0.62-7.19-0.08-1.27-0.15-2.54-0.23-3.85-0.05-0.98-0.1-1.95-0.15-2.96-0.99-0.33-1.98-0.66-3-1v-17l-4-1c-2.19-2.19-1.32-7.25-1.43-10.2-0.26-2.93-0.26-2.93-2.61-4.17-0.97-0.31-0.97-0.31-1.96-0.62 0.05-0.69 0.09-1.37 0.14-2.08 0.04-0.9 0.07-1.8 0.11-2.73 0.05-0.9 0.09-1.79 0.14-2.71-0.13-0.82-0.26-1.64-0.39-2.48-0.65-0.45-1.31-0.89-1.98-1.36-2.02-1.64-2.02-1.64-2.49-5.11-0.04-2.03-0.03-4.05-0.02-6.08-0.01-2.24-0.01-2.24-0.51-5.45-0.66-0.49-1.32-0.99-2-1.5-2-1.5-2-1.5-2.5-5-0.04-1.36-0.06-2.71-0.06-4.06-0.02-2.54-0.16-4.91-0.44-7.44l-3-2c-0.51-3.04-0.51-3.04-0.69-6.62-0.1-1.79-0.1-1.79-0.2-3.61-0.03-0.91-0.07-1.83-0.11-2.77-0.99-0.33-1.98-0.66-3-1-0.04-1.03-0.04-1.03-0.08-2.08-0.05-0.9-0.11-1.8-0.17-2.73-0.05-0.9-0.09-1.79-0.14-2.71-0.35-2.63-0.35-2.63-2.62-3.84-1.99-1.64-1.99-1.64-2.49-5.11-0.04-1.34-0.06-2.69-0.06-4.03 0.21-4.93 0.21-4.93-1.9-9.12-0.76-0.68-0.76-0.68-1.54-1.38-0.66-2.63-0.66-2.63-1.06-5.56-0.46-4.2-0.46-4.2-2.94-7.44-0.41-2.6-0.41-2.6-0.62-5.62-0.12-1.51-0.12-1.51-0.23-3.04-0.05-0.77-0.1-1.55-0.15-2.34-0.99-0.33-1.98-0.66-3-1-1.99-4.4-2.19-8.22-2-13l-2-1c-2.91-2.91-2.38-5.7-2.56-9.69-0.14-0.76-0.29-1.52-0.44-2.31l-3-2c-0.7-2.66-0.78-5.24-1-8-1.67 0.09-1.67 0.09-3.38 0.19-1.19-0.06-2.39-0.13-3.62-0.19l-2-3c-2.38-0.45-2.38-0.45-5.19-0.38-1.1-0.01-2.2-0.01-3.34-0.02-1.82 0.01-1.82 0.01-3.67 0.02-1.96-0.01-3.91-0.02-5.87-0.03-2.1-0.01-4.21 0-6.31 0-4.38 0.01-8.76-0.01-13.2-0.03-9.3-0.04-18.6-0.05-27.9-0.06-10-0.01-20.1-0.03-30.1-0.07-4.35-0.02-8.71-0.02-13.1-0.02-2.06 0.01-4.11 0-6.17-0.01-2.51-0.01-5.02-0.01-7.54 0-1.1 0-2.2-0.01-3.34-0.02h-2.91c-2.87-0.45-3.54-1.25-5.41-3.38-2.32-1.03-4.65-2.03-7-3-2.94-1.38-2.94-1.38-5-3-0.31-2.69-0.31-2.69 0-5l-5-1v-3h-2c-2.39-2.39-2.35-3.77-3-7l-2-2c-0.84-2.01-1.52-4.06-2.22-6.12-0.72-2.08-0.72-2.08-2.78-3.88-0.23-2.34-0.23-2.34-0.2-5.23 0.01-1.03 0.02-2.06 0.02-3.12 0.02-1.08 0.04-2.16 0.06-3.27 0-1.09 0.01-2.18 0.02-3.3 0.03-2.69 0.06-5.39 0.1-8.08l4-2v-8l4-2c-0.04-0.95-0.08-1.9-0.12-2.88 0.12-3.12 0.12-3.12 2.12-5.12h3l1-4 4-1v-3h4l1-4c1.11-0.25 2.23-0.5 3.38-0.75 4.04-0.92 4.04-0.92 5.62-5.25h16l2-4zm141 161 1 2zm44 150 1 3zm13 45 1 2zm31 103 1 2zm1 8 1 2zm17 54 1 3zm23 80 1 2zm4 14 1 3zm27 92 1 2zm44 148 1 4z" fill="#FBFCFE"/>
<path transform="translate(1161,1226)" d="m0 0c3.12-0.09 6.25-0.14 9.38-0.19 0.88-0.02 1.77-0.05 2.69-0.07 0.85-0.01 1.7-0.02 2.58-0.03 1.18-0.03 1.18-0.03 2.38-0.05 0.65 0.11 1.3 0.22 1.97 0.34 0.99 1.48 0.99 1.48 2 3 2.27 0.48 2.27 0.48 4.9 0.44 0.97 0.03 1.95 0.05 2.95 0.08 1.53 0.02 1.53 0.02 3.09 0.04 2.01 0.04 4.02 0.08 6.02 0.13 0.9 0.01 1.79 0.03 2.71 0.04 2.33 0.27 2.33 0.27 5.33 2.27v2c0.71 0.12 1.42 0.24 2.15 0.37 0.92 0.16 1.84 0.33 2.79 0.51 0.91 0.16 1.83 0.32 2.77 0.49 0.76 0.21 1.51 0.41 2.29 0.63l1 2c1.05 0.06 2.1 0.12 3.19 0.19 4.64 0.99 5.88 2.54 8.74 6.12 1.07 1.69 1.07 1.69 1.07 3.69 1.67-0.09 1.67-0.09 3.38-0.19 1.79 0.1 1.79 0.1 3.62 0.19 2 3 2 3 2 6 0.57 0.27 1.15 0.54 1.74 0.82 2.32 1.21 4.34 2.57 6.45 4.12 0.69 0.5 1.39 1.01 2.1 1.52 1.71 1.54 1.71 1.54 2.71 4.54l3 2c0.69 3.62 0.69 3.62 1 7 0.99 0.33 1.98 0.66 3 1 4.41 3.65 5.56 6.56 7 12l3 2c0.29 2.82 0.29 2.82 0.19 6.12-0.04 1.65-0.04 1.65-0.08 3.33-0.04 0.84-0.07 1.68-0.11 2.55l4 1c0.88 9.96 1.16 19.8 1.13 29.8-0.01 2.37 0 4.73 0.01 7.09 0.01 19.6 0.01 19.6-1.14 24.1l-3 2c-0.16 1.15-0.33 2.31-0.5 3.5-0.16 1.15-0.33 2.31-0.5 3.5l-3 2c-0.68 1.89-0.68 1.89-1 4-0.38 2.12-0.38 2.12-1 4l-3 2c-0.73 3.07-0.73 3.07-1 6h-3c-0.15 1.18-0.15 1.18-0.31 2.38-0.69 2.62-0.69 2.62-3.69 4.62-1.22 3.56-1.22 3.56-2 7h-2l-2 5c-0.99-0.33-1.98-0.66-3-1-0.23 0.56-0.45 1.11-0.69 1.69-2.55 4.49-5.11 6.93-10.1 8.5-1.07 0.27-2.14 0.53-3.25 0.81l-1 2c-2.32 1.06-4.64 2.04-7 3-1.63 0.68-3.25 1.37-4.88 2.06-1.14 0.48-1.14 0.48-2.3 0.98-2 0.83-2 0.83-2.82 2.96-3.07 0.36-6.12 0.44-9.21 0.56-0.92 0.14-1.84 0.29-2.79 0.44l-2 3c-2.35 0.38-2.35 0.38-5.32 0.39-1.11 0.01-2.22 0.02-3.37 0.03-1.2-0.01-2.41-0.02-3.65-0.02-1.85 0-1.85 0-3.74 0.01-3.28 0-6.56-0.01-9.84-0.03-2.01 0-4.03 0-6.04 0.01-3.85 0.02-7.71 0.02-11.6 0.01-1.2 0-2.4 0.01-3.64 0.02-1.12-0.01-2.23-0.02-3.38-0.03-0.98 0-1.96-0.01-2.98-0.01-2.9-0.45-3.58-1.24-5.47-3.38-2.85-0.44-5.62-0.5-8.5-0.59-1.24-0.2-1.24-0.2-2.5-0.41l-2-3c-1.97-1.06-3.97-2.07-6-3v-2c-4.62-1.04-4.62-1.04-9 0-0.37-1.45-0.37-1.45-0.75-2.94-0.41-1.01-0.83-2.02-1.25-3.06-1.87-0.84-1.87-0.84-4-1-2.19-0.75-2.19-0.75-4-2-0.75-2.62-0.75-2.62-1-5h-3c-0.25-0.61-0.49-1.23-0.75-1.86-1.49-2.55-2.69-3.11-5.31-4.39-3.73-2.15-3.73-2.15-4.69-4.85-0.25-2.21-0.25-2.21-0.25-5.9h-2c-0.27-0.97-0.54-1.94-0.81-2.94-0.39-1.01-0.79-2.02-1.19-3.06-0.99-0.33-1.98-0.66-3-1-0.08-1.11-0.16-2.23-0.25-3.38-0.25-1.19-0.49-2.39-0.75-3.62-0.66-0.29-1.32-0.58-2-0.88-0.99-0.55-0.99-0.55-2-1.12-0.61-2.6-0.61-2.6-0.75-5.62-0.06-1.01-0.11-2.01-0.17-3.04-0.03-0.77-0.05-1.55-0.08-2.34h-3c-1.35-2.7-1.34-5.12-1.56-8.12-0.09-1.1-0.17-2.2-0.26-3.33-0.06-0.84-0.12-1.68-0.18-2.55-0.99-0.33-1.98-0.66-3-1v-27l4-2c-0.02-0.55-0.03-1.11-0.05-1.68-0.06-2.52-0.1-5.05-0.14-7.57-0.02-0.87-0.05-1.75-0.07-2.64-0.08-6.47-0.08-6.47 1.65-9.72 1.61-1.39 1.61-1.39 3.61-1.39-0.04-1.11-0.08-2.23-0.12-3.38 0.12-3.62 0.12-3.62 2.12-5.62h3c-0.12-1.45-0.12-1.45-0.25-2.94-0.01-4.75 1.7-9.08 4.25-13.1 1.48-0.49 1.48-0.49 3-1l1-5h4c0.25-0.64 0.49-1.28 0.75-1.94 1.25-2.06 1.25-2.06 3.37-2.81 0.62-0.08 1.24-0.16 1.88-0.25l-1-4c0.62-0.1 1.24-0.21 1.88-0.31 2.49-0.57 2.49-0.57 4.12-3.69 0.99-0.33 1.98-0.66 3-1 1.04-1.64 2.04-3.31 3-5 1.7-2.12 2.58-2.91 5.26-3.51 0.8-0.06 1.6-0.12 2.43-0.18 1.21-0.1 1.21-0.1 2.45-0.2 0.92-0.05 0.92-0.05 1.86-0.11l1-4c1.39-0.15 1.39-0.15 2.81-0.31 3.17-0.37 3.17-0.37 4.69-2.25 1.5-1.44 1.5-1.44 4.69-1.63 0.93 0.06 1.85 0.13 2.81 0.19 0.23-0.64 0.45-1.28 0.69-1.94 1.31-2.06 1.31-2.06 3.4-2.68 3.59-0.47 7.12-0.49 10.7-0.44 0.7 0 1.39 0.01 2.1 0.01 1.7 0.01 3.39 0.03 5.09 0.05l2-4zm-77 48 1 2zm-1 4 1 2zm-13 73 1 2z" fill="#FBFCFE"/>
<path transform="translate(632,1226)" d="m0 0h14c0.5 1.98 0.5 1.98 1 4h22l1 4c1.14 0.09 1.14 0.09 2.3 0.18 0.99 0.09 1.99 0.17 3.01 0.26 0.99 0.08 1.97 0.16 2.99 0.24 2.7 0.32 2.7 0.32 5.7 1.32v2c2.31 0.33 4.62 0.66 7 1 0.04 0.62 0.08 1.24 0.12 1.88 0.44 1.05 0.44 1.05 0.88 2.12 2.98 1.16 2.98 1.16 6 2l1 2c2.53 0.66 2.53 0.66 5 1 0.06 0.62 0.12 1.24 0.19 1.88 0.27 0.7 0.53 1.4 0.81 2.12 1.65 0.71 3.32 1.37 5 2 2.31 1.94 2.31 1.94 4 4v3h5l2 6h2v7l2.25 0.75c3.11 1.41 4.69 2.53 6.75 5.25 0.36 2.33 0.7 4.66 1 7l3 2c0.96 2.88 1.11 4.7 1.06 7.69-0.01 0.81-0.02 1.61-0.02 2.45-0.02 0.92-0.02 0.92-0.04 1.86l4 1 1 62-4-1c-0.06 0.94-0.06 0.94-0.11 1.9-0.1 1.22-0.1 1.22-0.2 2.48-0.06 0.81-0.12 1.62-0.18 2.46-0.51 2.16-0.51 2.16-3.51 4.16-1.54 3.89-1.54 3.89-2 8h-3l-1 9-4 1-1 4h-3c0.04 0.95 0.08 1.9 0.12 2.88-0.12 3.12-0.12 3.12-2.12 5.12-2.12 0.62-2.12 0.62-4 1l-1 4h-2v3h-5c-0.02 0.6-0.04 1.2-0.06 1.81-0.94 2.19-0.94 2.19-4.5 3.94-1.7 0.62-1.7 0.62-3.44 1.25v3c-2.97 0.33-5.94 0.66-9 1v2c-0.57 0.19-1.13 0.39-1.71 0.59-0.74 0.26-1.47 0.52-2.23 0.79-0.73 0.25-1.46 0.51-2.21 0.77-2.04 0.7-2.04 0.7-2.85 2.85-3.07 0.36-6.12 0.44-9.21 0.56-0.92 0.14-1.84 0.29-2.79 0.44l-2 3c-2.34 0.38-2.34 0.38-5.3 0.39-1.11 0.01-2.22 0.02-3.36 0.03-1.2-0.01-2.41-0.02-3.64-0.02-1.24 0-2.47 0-3.73 0.01-3.28 0-6.56-0.01-9.83-0.03-2.01 0-4.02 0-6.02 0.01-3.85 0.02-7.7 0.02-11.6 0.01-1.2 0-2.4 0.01-3.63 0.02-1.11-0.01-2.23-0.02-3.38-0.03-0.98 0-1.96-0.01-2.97-0.01-3.01-0.44-4.28-1.47-6.59-3.38-2.61-0.39-5.12-0.44-7.76-0.5-1.11-0.25-1.11-0.25-2.24-0.5-0.71-1.31-1.38-2.64-2-4-2.33-0.37-4.66-0.71-7-1l-2-3c-1.15-0.14-2.31-0.29-3.5-0.44-1.15-0.18-2.31-0.37-3.5-0.56-0.69-1.32-1.35-2.66-2-4-2.03-1.8-2.03-1.8-4.38-3.44-3.45-2.58-6.06-5.06-8.62-8.56-2.68-3-2.68-3-6.19-4.75-1.81-1.25-1.81-1.25-2.28-3.15-0.25-2.02-0.4-4.06-0.53-6.1h-3c-0.08-0.78-0.16-1.57-0.25-2.38-0.25-0.86-0.5-1.73-0.75-2.62-0.64-0.27-1.28-0.54-1.94-0.81-2.06-1.19-2.06-1.19-2.66-2.98-0.3-1.41-0.57-2.82-0.81-4.24-0.44-2.07-0.44-2.07-2.11-3.43-1.96-2.04-1.97-3.44-2.17-6.23-0.06-0.81-0.13-1.61-0.2-2.45-0.03-0.61-0.07-1.23-0.11-1.86h-2c-1.63-3.26-1.34-6.86-1.52-10.5-0.16-0.83-0.32-1.67-0.48-2.53l-3-2c-0.37-2.67-0.37-2.67-0.36-6.03v-3.65c0.01-1.26 0.03-2.52 0.05-3.82-0.01-1.26-0.01-2.52-0.01-3.82 0.05-9.41 0.05-9.41 2.32-11.7 1.43-4.97 1.27-10.2 1.34-15.4 0.09-2.1 0.09-2.1 0.66-5.62 2.04-1.49 2.04-1.49 4-2-0.06-0.93-0.12-1.86-0.19-2.81 0.19-3.19 0.19-3.19 1.57-5.07 1.62-1.12 1.62-1.12 3.62-1.12v-7c0.64-0.21 1.28-0.41 1.94-0.62 0.68-0.46 1.36-0.91 2.06-1.38 0.16-0.99 0.33-1.98 0.5-3 0.16-0.99 0.33-1.98 0.5-3 1.32-0.7 2.65-1.37 4-2 0.81-2.56 0.81-2.56 1-5h4l1-5h3l1-4h3l1-4 4-1 1-4h3l2-4h7l1-5h7c0.23-0.65 0.46-1.3 0.7-1.97 0.43-0.67 0.86-1.34 1.3-2.03 2.24-0.47 2.24-0.47 4.88-0.5 2.61 0.04 2.61 0.04 5.12-0.5 0.55-0.67 1.11-1.33 1.68-2.02 3.74-3.2 7.82-2.4 12.6-2.23 0.94 0.02 1.87 0.04 2.84 0.05 2.3 0.05 4.61 0.12 6.91 0.2l2-4zm52 13 4 1zm-142 52 1 2zm-1 74 1 4z" fill="#FBFCFE"/>
<path transform="translate(742,1329)" d="m0 0h1v13h-1v-13z" fill="#000100"/>
<path transform="translate(714,1405)" d="m0 0 1 4z" fill="#000100"/>
<path transform="translate(719,1403)" d="m0 0 2 1z" fill="#000100"/>
</svg>
