<svg width="24" height="24" viewBox="0 0 24 24" fill="none" xmlns="http://www.w3.org/2000/svg">
<path d="M15.0085 1.09093L13.9944 2.18183L6.99718 2.25456L0 2.36365V3.27274V4.18183L6.99718 4.29093L13.9944 4.36365L15.0085 5.45456C16.3606 6.90911 17.7803 6.90911 19.1324 5.45456C19.9775 4.58183 20.4507 4.36365 22.0732 4.29093C23.8648 4.18183 24 4.10911 24 3.27274C24 2.43638 23.8648 2.36365 22.0732 2.25456C20.4507 2.18183 19.9775 1.96365 19.1324 1.09093C17.7803 -0.363619 16.3606 -0.363619 15.0085 1.09093ZM17.9155 3.27274C17.9155 3.92729 17.7127 4.2182 17.138 4.29093C16.3268 4.43638 15.8535 3.63638 16.1916 2.69093C16.293 2.36365 16.6986 2.18183 17.138 2.25456C17.7127 2.32729 17.9155 2.6182 17.9155 3.27274Z" fill="currentColor"/>
<path d="M6.89577 9.81819C5.9493 10.8 5.71268 10.8727 2.94085 10.9818C0.0676056 11.0909 0 11.0909 0 12C0 12.9091 0.0676056 12.9091 2.94085 13.0182C5.71268 13.1273 5.9493 13.2 6.89577 14.1818C8.24789 15.6364 9.66761 15.6364 11.0197 14.1818L12.0338 13.0909L18.0169 13.0182L24 12.9091V12V11.0909L18.0169 10.9818L12.0338 10.9091L11.0197 9.81819C9.66761 8.36364 8.24789 8.36364 6.89577 9.81819ZM9.80282 12C9.80282 12.6546 9.6 12.9455 9.02535 13.0182C8.58592 13.0909 8.18028 12.9091 8.07887 12.5818C7.74085 11.6364 8.21408 10.8364 9.02535 10.9818C9.6 11.0546 9.80282 11.3455 9.80282 12Z" fill="currentColor"/>
<path d="M10.9521 18.5455L9.93803 19.6L4.96901 19.7091L0 19.8182V20.7273V21.6364L4.96901 21.7455L9.93803 21.8545L10.9521 22.9091C12.3042 24.3636 13.7239 24.3636 15.0761 22.9091C16.0563 21.8545 16.1577 21.8545 20.0451 21.7455L24 21.6364V20.7273V19.8182L20.0451 19.7091C16.1577 19.6 16.0563 19.6 15.0761 18.5455C13.7239 17.0909 12.3042 17.0909 10.9521 18.5455ZM13.8592 20.7273C13.8592 21.3818 13.6563 21.6727 13.0817 21.7455C12.6423 21.8182 12.2366 21.6364 12.1352 21.3091C11.7972 20.3636 12.2704 19.5636 13.0817 19.7091C13.6563 19.7818 13.8592 20.0727 13.8592 20.7273Z" fill="currentColor"/>
</svg>