<?xml version="1.0" encoding="UTF-8"?>
<svg version="1.1" viewBox="0 0 1600 1600" width="1280" height="1280" xmlns="http://www.w3.org/2000/svg">
<path transform="translate(494,159)" d="m0 0c3.95-0.02 7.9-0.04 11.8-0.05 2.01-0.01 4.02-0.03 6.02-0.04 1.89 0 1.89 0 3.81-0.01 1.74-0.01 1.74-0.01 3.52-0.01 2.8 0.11 2.8 0.11 4.8 1.11v3c0.89 0 1.78-0.01 2.69-0.01 9-0.02 18 0.04 27 0.27 1.44 0.04 2.88 0.06 4.31 0.09 2.11 0.03 4.22 0.08 6.33 0.14 1.85 0.04 1.85 0.04 3.74 0.08 1.45 0.21 1.45 0.21 2.93 0.43l2 3c2.09 0.49 2.09 0.49 4.5 0.48 1.33 0.04 1.33 0.04 2.69 0.09 0.93 0.02 1.85 0.04 2.81 0.05 1.83 0.06 3.67 0.11 5.5 0.17 0.81 0.02 1.63 0.03 2.47 0.05 2.03 0.16 2.03 0.16 4.03 1.16v3l16 1 1 3 12 1 1 4c0.58-0.02 1.16-0.05 1.76-0.07 4.83-0.11 8.73 0.09 13.2 2.07l2 2c1.01 0.33 2.02 0.66 3.06 1 2.94 1 2.94 1 3.94 3 1.96 0.32 1.96 0.32 4.25 0.38 4.46 0.38 6.35 1.68 9.75 4.62 1.01 0.14 2.02 0.29 3.06 0.44 3.89 0.74 4.53 2.55 6.94 5.56 2.86 0.68 2.86 0.68 6 1 2.4 0.88 4.67 1.93 7 3v2c0.6 0.09 1.21 0.17 1.83 0.26 6.61 1.16 6.61 1.16 9.55 4.18 0.8 1.27 0.8 1.27 1.62 2.56 2.12 2.73 3.06 3.01 6.56 3.94 1.7 0.52 1.7 0.52 3.44 1.06 0.31 0.65 0.63 1.31 0.95 1.98 0.86 2.18 0.86 2.18 2.97 2.86 0.75 0.17 1.5 0.35 2.27 0.54 4.44 1.28 7.11 3.21 10.4 6.41 1.35 1.43 1.35 1.43 3.41 1.21l2 3c0.76 0.29 1.53 0.58 2.31 0.88 2.69 1.12 2.69 1.12 4.88 3.43 3.24 3.1 6.45 4.64 10.5 6.48 2.27 1.19 3.73 2.18 5.3 4.21v3c0.89 0.19 1.77 0.37 2.69 0.56 3.89 1.69 5 3.35 7.13 6.88 1.19 1.88 1.19 1.88 4.18 2.56l1 3c1.46 1.52 1.46 1.52 3.25 2.94 0.94 0.78 0.94 0.78 1.9 1.58 1.55 1.24 3.13 2.43 4.73 3.6 2.33 2.06 2.51 2.95 3.12 5.88 0.99 0.33 1.98 0.66 3 1v2l4 1 1 4 14 1 1-4h3l2-4h3l1-4h2c0.21-0.62 0.41-1.24 0.62-1.88 1.92-2.96 4.09-3.05 7.38-4.12 1.69-2 1.69-2 3-4 1.49-0.5 1.49-0.5 3-1 0.73-2.02 0.73-2.02 1-4h4c0.27-0.64 0.54-1.28 0.81-1.94 1.19-2.06 1.19-2.06 4.19-3.06l1-2h2l1-5c1.49-0.5 1.49-0.5 3-1 0.62-0.96 0.62-0.96 1.25-1.94 2.48-2.91 5.11-3.15 8.75-4.06 3.22-1.67 3.22-1.67 3.69-4.62 0.1-0.79 0.2-1.57 0.31-2.38 0.58-0.08 1.15-0.17 1.75-0.25 2.42-0.6 2.42-0.6 4.13-2.81 2.12-1.94 2.12-1.94 5.37-2.19 0.91 0.08 1.82 0.17 2.75 0.25v-3c0.6-0.08 1.2-0.17 1.81-0.25 2.35-0.57 2.35-0.57 3.63-2.75 1.56-2 1.56-2 4.25-2.75 0.76-0.08 1.52-0.16 2.31-0.25l1-3c1.71-0.88 1.71-0.88 3.81-1.56 0.72-0.25 1.44-0.5 2.18-0.76 0.66-0.22 1.33-0.45 2.01-0.68 2.37-0.81 2.37-0.81 4-2 0.65-2.02 0.65-2.02 1-4 2.96-1.48 5.74-1.06 9-1 0.19-0.62 0.37-1.24 0.56-1.88 2.16-3.18 4.8-3.24 8.44-4.12 0.7-0.37 1.4-0.74 2.12-1.12 2.38-1.12 4.29-1.02 6.88-0.88l1-4c1.07-0.25 2.14-0.5 3.25-0.75 3.75-0.94 3.75-0.94 5.81-3.31 2.52-2.52 4.48-2.42 7.94-2.94 0.44-0.5 0.88-1 1.33-1.52 2.41-2.14 4.2-1.78 7.36-1.67 0.99 0.03 1.99 0.06 3.01 0.08 1.14 0.06 1.14 0.06 2.3 0.11 0.24-0.64 0.48-1.28 0.72-1.93 1.28-2.07 1.28-2.07 3.34-2.79 1.18-0.17 1.18-0.17 2.38-0.34 3.4-0.41 3.4-0.41 5.96-2.49 2.45-2.22 4.57-1.74 7.79-1.64 1.08 0.03 2.17 0.06 3.29 0.08 1.25 0.06 1.25 0.06 2.52 0.11 0.18-0.65 0.35-1.3 0.53-1.97 0.49-0.67 0.97-1.34 1.47-2.03 3.26-0.45 6.31-0.51 9.59-0.49 2.25-0.01 2.25-0.01 5.41-0.51l2-4h21l2-4c17.3-0.66 34.6-1.16 52-1l2-4h27l1 4c0.6 0.01 1.19 0.01 1.81 0.02 6.2 0.06 12.4 0.15 18.6 0.24 2.31 0.04 4.63 0.06 6.94 0.09 3.32 0.03 6.64 0.08 9.96 0.14 1.04 0 2.08 0.01 3.16 0.02 0.96 0.02 1.92 0.04 2.91 0.06 0.84 0.01 1.69 0.02 2.57 0.03 0.68 0.13 1.36 0.26 2.06 0.4l2 3c2.12 0.51 2.12 0.51 4.57 0.51 0.9 0.04 1.79 0.07 2.72 0.11 1.4 0.03 1.4 0.03 2.83 0.07 1.42 0.05 1.42 0.05 2.87 0.1 2.34 0.08 4.67 0.15 7.01 0.21l1 3c5.61 0.66 11.2 1.32 17 2l1 3c0.85 0.05 1.71 0.1 2.59 0.15 1.1 0.07 2.21 0.15 3.35 0.23 1.1 0.06 2.2 0.13 3.34 0.21 0.9 0.13 1.79 0.27 2.72 0.41l1 2c2.98 0.86 5.99 1.47 9.02 2.12 2.99 0.88 4.59 1.93 6.98 3.88 1.99 0.7 3.99 1.37 6 2 0.62 0.35 1.24 0.7 1.88 1.06 2.21 0.98 3.85 1.16 6.24 1.38 1.28 0.18 2.56 0.37 3.88 0.56l2 3c2.08 1.25 3.8 1.96 6.19 2.44 0.89 0.28 0.89 0.28 1.81 0.56l1 3c2.11 0.81 2.11 0.81 4.56 1.19 0.83 0.16 1.66 0.31 2.51 0.48 0.63 0.11 1.27 0.22 1.93 0.33v2c1.09 0.29 2.19 0.58 3.31 0.88 3.69 1.12 3.69 1.12 6.69 3.12 0.95 0.08 1.9 0.16 2.88 0.25 4.41 1.06 5.38 3.2 8.12 6.75 0.99 0.33 1.98 0.66 3 1 3.34 1.11 5.42 2.72 8.18 4.84 1.78 1.27 1.78 1.27 3.98 1.69 0.91 0.23 0.91 0.23 1.84 0.47l1 2c1.89 0.68 1.89 0.68 4.06 1.12 0.74 0.17 1.47 0.34 2.23 0.51 0.84 0.18 0.84 0.18 1.71 0.37v2c0.97 0.25 1.94 0.5 2.94 0.75 1.01 0.41 2.02 0.82 3.06 1.25 0.75 2.06 0.75 2.06 1 4l2 1c0.41 0.66 0.83 1.32 1.25 2 2.36 2.7 4.28 2.43 7.75 3 2.06 1.81 2.06 1.81 4 4 0.87 0.64 1.73 1.28 2.62 1.94 2.61 2.26 3.19 3.9 4.38 7.06 0.99 0.33 1.98 0.66 3 1v2h2v2c2.8 1.5 5.44 2.43 8.5 3.25 4.61 1.48 6.11 3.5 8.5 7.75 1.32 1.02 2.64 2.03 4 3v2c0.99 0.33 1.98 0.66 3 1 1.36 1.42 1.36 1.42 2.75 3.19 2.66 3.25 5.51 5.81 8.83 8.35 1.7 1.75 2.03 3.08 2.42 5.46 0.62 0.06 1.24 0.12 1.88 0.19 2.12 0.81 2.12 0.81 3.37 3.37 0.37 1.21 0.37 1.21 0.75 2.44h2c2 3 2 3 2 6 0.74 0.19 1.48 0.37 2.25 0.56 3.23 1.69 4.15 3.52 5.78 6.71 0.97 1.93 0.97 1.93 3.09 3.79 2.35 2.43 2.85 4.77 3.88 7.94l3 2v4l4 1v2c0.99 0.33 1.98 0.66 3 1 0.66 1.96 1.33 3.92 1.98 5.88 1.18 2.46 2.43 3.53 4.58 5.18 3.72 2.88 4.46 5.29 5.44 9.94 1.89 5.39 3.15 7.21 8 10 2.65 4.12 3.35 7.13 3 12 0.62 0.19 1.24 0.37 1.88 0.56 3.15 2.13 3.16 4.86 4.12 8.44l3 2c0.51 2.82 0.51 2.82 0.69 6.12 0.06 1.1 0.13 2.2 0.2 3.33 0.03 0.84 0.07 1.68 0.11 2.55h2v2c0.99 0.33 1.98 0.66 3 1-0.06 0.72-0.12 1.44-0.19 2.19 0.23 3.39 1.35 4.98 3.19 7.81 0.35 0.89 0.7 1.77 1.06 2.69 0.82 2.45 0.82 2.45 2.94 4.31 0.58 2.55 0.95 5.1 1.34 7.69 0.49 2.67 0.49 2.67 3.66 4.31 0.46 3.1 0.5 6.12 0.59 9.25 0.2 1.36 0.2 1.36 0.41 2.75l3 2c0.38 2.61 0.6 5.01 0.69 7.62 0.05 1.06 0.05 1.06 0.1 2.15 0.08 1.74 0.15 3.48 0.21 5.23l5 2c0.05 1.11 0.1 2.22 0.15 3.36 0.07 1.46 0.15 2.93 0.23 4.39 0.03 0.73 0.06 1.46 0.09 2.21 0.21 3.92 0.79 6.59 2.53 10 0.25 2.63 0.42 5.18 0.5 7.81 0.11 9.35 0.11 9.35 4.5 17.2 0.25 1.92 0.25 1.92 0.25 4.32 0 0.91 0.01 1.81 0.01 2.75-0.01 1.5-0.01 1.5-0.02 3.02 0.01 1.58 0.01 1.58 0.01 3.18 0 3.48-0.01 6.96-0.02 10.4v7.24c0 5.06-0.01 10.1-0.02 15.2-0.02 6.49-0.03 13-0.02 19.5 0 4.98-0.01 9.97-0.02 15v7.18c-0.01 3.35-0.01 6.69-0.02 10v3.02c-0.01 0.91-0.01 1.82-0.02 2.75v2.4c-0.13 2.05-0.13 2.05-1.13 5.05h-2l-2 27h-2l-1 17-4 2c-0.55 2.75-0.88 5.22-1.06 8-0.2 2.72-0.5 5.29-0.94 8l-3 2c-0.38 2.61-0.6 5.01-0.69 7.62-0.03 0.71-0.07 1.42-0.1 2.15-0.08 1.74-0.15 3.48-0.21 5.23-0.99 0.33-1.98 0.66-3 1-0.11 0.84-0.22 1.69-0.33 2.55-0.16 1.1-0.32 2.2-0.48 3.33-0.15 1.09-0.3 2.18-0.46 3.3-0.73 2.82-0.73 2.82-3.73 4.82-0.47 1.9-0.47 1.9-0.5 4-0.09 2.13-0.09 2.13-0.5 4l-3 2c-0.8 2.65-0.8 2.65-1.19 5.62-0.16 1.01-0.31 2.01-0.48 3.04-0.11 0.77-0.22 1.55-0.33 2.34h-3c-0.06 0.94-0.06 0.94-0.11 1.9-0.07 0.82-0.13 1.63-0.2 2.48-0.06 0.81-0.12 1.62-0.18 2.46-0.51 2.16-0.51 2.16-3.51 4.16-0.47 2.36-0.47 2.36-0.5 5-0.09 2.69-0.09 2.69-0.5 5l-3 2c-0.79 1.95-0.79 1.95-1.19 4.12-0.27 1.28-0.53 2.56-0.81 3.88h-2c-0.03 0.63-0.05 1.25-0.08 1.9-0.05 0.82-0.11 1.63-0.17 2.48-0.07 1.21-0.07 1.21-0.14 2.46-0.2 0.71-0.4 1.42-0.61 2.16-0.97 0.48-0.97 0.48-1.97 0.97-2.28 0.86-2.28 0.86-2.86 3.41-0.21 1.36-0.21 1.36-0.42 2.74-0.15 0.92-0.3 1.83-0.45 2.76-0.1 0.7-0.2 1.4-0.3 2.12-0.99 0.33-1.98 0.66-3 1-0.1 1.28-0.21 2.56-0.31 3.88-0.18 2.17-0.18 2.17-0.69 4.12l-3 2c-0.33 1.18-0.66 2.35-1 3.56-0.33 1.14-0.66 2.27-1 3.44-0.99 0.33-1.98 0.66-3 1-0.34 1.33-0.68 2.66-1 4l-3 2c-0.47 2.36-0.47 2.36-0.5 5-0.09 2.69-0.09 2.69-0.5 5l-3 2-1 3-3 2c-1.01 2.18-1.01 2.18-1.69 4.62-0.25 0.82-0.5 1.64-0.76 2.48-0.18 0.63-0.36 1.25-0.55 1.9h-2c-0.29 1.09-0.58 2.19-0.88 3.31-1.12 3.69-1.12 3.69-3.12 6.69-0.71 2.32-1.38 4.65-2 7h-3c-0.4 0.96-0.4 0.96-0.81 1.94-1.19 2.06-1.19 2.06-4.19 3.06l-1 9c-0.99 0.33-1.98 0.66-3 1-0.46 1.7-0.46 1.7-0.94 3.44-1.06 3.56-1.06 3.56-3.12 4.75-0.64 0.27-1.28 0.53-1.94 0.81-0.81 2.05-0.81 2.05-1 4h-2l-1 7-4 1c-0.1 0.62-0.21 1.24-0.31 1.88-0.69 2.12-0.69 2.12-3.69 4.12-0.33 1.18-0.66 2.35-1 3.56-0.33 1.14-0.66 2.27-1 3.44-0.99 0.33-1.98 0.66-3 1l-1 8h-2l-1 3-5 1c-0.1 1.28-0.21 2.56-0.31 3.88-0.18 2.17-0.18 2.17-0.69 4.12l-3 2-1 3-3 2-1 3c-0.66 0.25-1.32 0.5-2 0.75-0.66 0.41-1.32 0.83-2 1.25-0.82 3.56-0.82 3.56-1 7h-4c-0.08 0.78-0.16 1.57-0.25 2.38-0.75 2.62-0.75 2.62-2.75 3.81-0.66 0.27-1.32 0.53-2 0.81l-1 2h-2l-1 10-5 1c-0.2 0.71-0.41 1.42-0.62 2.15-0.27 0.92-0.54 1.84-0.82 2.79-0.26 0.91-0.53 1.83-0.81 2.77-0.75 2.29-0.75 2.29-1.75 3.29-1.67 0.04-3.33 0.04-5 0l-1 5h-2v2c-1.31 1.36-2.65 2.69-4 4l-2 3h-2c-0.4 1.67-0.4 1.67-0.81 3.38-1.19 3.62-1.19 3.62-4.19 5.62-0.72 2.06-0.72 2.06-1 4h-4l-1 5h-3c-0.4 1.7-0.4 1.7-0.81 3.44-0.39 1.17-0.79 2.35-1.19 3.56-0.99 0.33-1.98 0.66-3 1-0.14 0.6-0.29 1.2-0.44 1.81-0.77 3-2.24 4.2-4.56 6.19-0.72 0.35-1.44 0.7-2.19 1.06-2.17 0.86-2.17 0.86-2.81 3.94-1.56 1.32-1.56 1.32-3.44 2.69-2.86 2.32-3.96 3.73-4.56 7.37-0.43 2.59-0.66 3.63-2.63 5.42-1.93 1.27-1.93 1.27-3.81 2.32-2 1.54-2.19 2.75-2.56 5.2-0.62 0.1-1.24 0.21-1.88 0.31-2.49 0.57-2.49 0.57-4.12 3.69h-2l-2 5h-2l-2 8h-3l-1 5c-0.58 0.08-1.15 0.16-1.75 0.25-2.98 0.99-4.29 2.32-6.25 4.75-0.8 2.64-0.8 2.64-1 5-0.99 0.33-1.98 0.66-3 1l-1 2c-2.56 0.62-2.56 0.62-5 1l-1 4h-2c-0.23 1.03-0.45 2.06-0.69 3.12-1.2 4.25-3.25 6.74-6.31 9.88h-2l-1 4-5 1v4h-3c-0.1 0.62-0.21 1.24-0.31 1.88-0.69 2.12-0.69 2.12-3.69 4.12-1.19 2.05-1.19 2.05-2 4h-3v2c-0.64 0.27-1.28 0.54-1.94 0.81-2.39 1.08-2.39 1.08-3.06 4.19l-4 2-1 3c-5.47 5-5.47 5-8 5-0.1 0.64-0.21 1.28-0.31 1.94-0.23 0.68-0.46 1.36-0.69 2.06-0.99 0.33-1.98 0.66-3 1-1.02 1.87-1.02 1.87-1.69 4.06-0.25 0.74-0.5 1.47-0.76 2.23-0.18 0.56-0.36 1.13-0.55 1.71h-3v3l-3 2-1 3c-1.32 0.68-2.66 1.35-4 2l-2 3h-2l-1 4h-4l-1 4-4 1v4c-0.96 0.15-0.96 0.15-1.94 0.31-0.68 0.23-1.36 0.46-2.06 0.69l-1 3c-2.44 2.69-2.44 2.69-5 5h-2l-1 5c-0.58 0.02-1.15 0.04-1.75 0.06-2.72 1.14-2.9 1.88-4.19 4.44-1.74 3.39-1.74 3.39-4.81 4.44-0.74 0.02-1.49 0.04-2.25 0.06l-1 3-3 2-1 3c-1.33 0.33-2.67 0.67-4 1l-1 3c-2.06 0.69-2.06 0.69-4 1l-1 5h-2l-1 3c-0.99 0.33-1.98 0.66-3 1-0.7 1.32-1.37 2.65-2 4l-2 1-1 3h-5v4c-1.44 1.56-1.44 1.56-3 3l-1 3h-5l-1 3-3 2-1 3c-2.31 2.69-2.31 2.69-5 5h-4l-1 5h-2l-1 3c-1.32 0.68-2.66 1.35-4 2l-2 3h-2c-0.08 0.62-0.16 1.24-0.25 1.88-0.25 0.7-0.49 1.4-0.75 2.12-0.95 0.44-0.95 0.44-1.93 0.88-2.58 1.4-2.95 2.49-4.01 5.18-0.99 2.17-0.99 2.17-2.06 3.94-2.56 0.81-2.56 0.81-5 1l-1.5 1.5c-2 2-3.75 2.13-6.5 2.5v2l-4 1-1 5c-0.64 0.1-1.28 0.21-1.94 0.31-0.68 0.23-1.36 0.46-2.06 0.69l-1 3c-1.32 0.68-2.66 1.35-4 2l-2 3h-2c-0.08 0.62-0.16 1.24-0.25 1.88-0.75 2.12-0.75 2.12-2.75 3.18-0.66 0.31-1.32 0.62-2 0.94l-1 3h-2l-1 3c-0.64 0.31-1.28 0.62-1.94 0.94-2.57 1.32-2.89 2.48-4.06 5.06-2.31 2.98-4.31 3.5-8 4-0.12 0.64-0.25 1.28-0.38 1.94-0.2 0.68-0.41 1.36-0.62 2.06l-2 1c-0.29 0.64-0.58 1.28-0.88 1.94-1.39 2.56-2.47 2.92-5.12 4.06-0.85 0.54-1.69 1.07-2.56 1.62-2.44 1.38-2.44 1.38-5.44 1.38l-2 4h-3v4l-2 1-1 3h-5c-0.27 0.62-0.54 1.24-0.81 1.88-1.19 2.12-1.19 2.12-4.19 4.12-0.12 0.62-0.25 1.24-0.38 1.88-0.94 3.22-2.87 4.33-5.62 6.12h-4v4c-1.13 0.29-2.27 0.58-3.44 0.88-1.17 0.37-2.35 0.74-3.56 1.12l-1 2c-0.66 0.29-1.32 0.58-2 0.88-2.2 0.94-2.2 0.94-2.75 3.24-0.08 0.62-0.16 1.24-0.25 1.88h-5l-2 6c-0.78 0.06-1.57 0.12-2.38 0.19-1.29 0.4-1.29 0.4-2.62 0.81-0.29 0.8-0.58 1.61-0.88 2.44-0.37 0.84-0.74 1.69-1.12 2.56-2.32 0.7-4.66 1.36-7 2-3.08 2.61-4.72 4.16-6 8-2.79 1.97-5.52 3.21-8.69 4.5-3.52 1.24-3.52 1.24-5.31 4.5h-4c-0.12 0.64-0.25 1.28-0.38 1.94-0.2 0.68-0.41 1.36-0.62 2.06-2.71 1.35-5.01 1.07-8 1l-1 4-8 1v3h-8v3c-0.57 0.19-1.13 0.39-1.71 0.59-0.74 0.26-1.47 0.52-2.23 0.79-0.73 0.25-1.46 0.51-2.21 0.77-2.04 0.7-2.04 0.7-2.85 2.85-3.41 0.3-6.77 0.42-10.2 0.48-1.94 0.07-3.88 0.29-5.81 0.52l-2 3c-2.75 0.36-2.75 0.36-6.29 0.34h-1.95c-2.13 0-4.26-0.02-6.39-0.05-1.48 0-2.96-0.01-4.43-0.01-3.89-0.01-7.78-0.04-11.7-0.07-3.97-0.03-7.94-0.05-11.9-0.06-7.78-0.04-15.6-0.09-23.4-0.15l-1-4h-16l-2-4c-1.02 0.12-1.02 0.12-2.06 0.25-3.34-0.28-5.41-1.49-8.23-3.23-1.84-1.16-1.84-1.16-4.59-2.14-2.12-0.88-2.12-0.88-3.12-2.88-1.24-0.46-1.24-0.46-2.5-0.94-1.24-0.52-1.24-0.52-2.5-1.06l-1-3h-6v-4c-1.22-0.06-2.43-0.12-3.69-0.19-3.55-0.43-4.36-0.85-7.31-3.25-2-2.56-2-2.56-2-4.56-2.97-0.66-5.94-1.32-9-2l-1-5c-0.58-0.09-1.17-0.17-1.77-0.26-2.87-0.95-4.02-2.33-5.98-4.62-0.61-0.69-1.23-1.39-1.86-2.11-1.39-2.01-1.39-2.01-1.39-5.01-0.89-0.1-1.77-0.21-2.69-0.31-3.39-0.71-5.53-1.65-8.31-3.69v-2c-0.64-0.1-1.28-0.21-1.94-0.31-0.68-0.23-1.36-0.46-2.06-0.69l-1-3c-2-1.21-2-1.21-4-2v-2h-3c-0.25-0.8-0.5-1.61-0.75-2.44-0.41-0.84-0.83-1.69-1.25-2.56-1.32-0.37-2.66-0.69-4-1-2.83-2.54-5.1-5.14-7.38-8.19-3.08-3.3-5.32-3.74-9.62-4.81l-1-3c-0.99-0.33-1.98-0.66-3-1v-3c-0.62-0.08-1.24-0.16-1.88-0.25-2.8-0.99-2.86-2.15-4.12-4.75-1.32-0.68-2.66-1.35-4-2-2.75-2.5-2.75-2.5-5-5v-2h-3c-0.41-0.74-0.83-1.48-1.25-2.25-1.79-2.82-2.54-3.36-5.37-4.81-3.38-1.94-3.38-1.94-4.32-4.19-0.02-0.58-0.04-1.15-0.06-1.75h-2v-4c-4.1-1.02-4.1-1.02-8 0-0.41-0.76-0.83-1.53-1.25-2.31-1.72-2.64-3.24-3.87-5.75-5.69v-2c-0.99-0.33-1.98-0.66-3-1-4.77-4.32-4.77-4.32-6-8-2-1.21-2-1.21-4-2v-2l-5-2v-2l-2-1c-0.29-0.64-0.58-1.28-0.88-1.94-1.35-2.48-2.54-3.03-5.12-4.06v-3h-3c-0.25-0.62-0.5-1.24-0.75-1.88-1.51-2.56-2.61-2.84-5.25-4.12-2.75-2.5-2.75-2.5-5-5v-2c-0.56-0.04-1.11-0.08-1.69-0.12-3.6-1.37-5.04-3.79-7.31-6.88v-2c-0.56-0.04-1.11-0.08-1.69-0.12-3.6-1.37-5.04-3.79-7.31-6.88v-2c-0.99-0.33-1.98-0.66-3-1v-2c-0.6-0.26-1.2-0.52-1.81-0.79-2.35-1.3-3.53-2.55-5.19-4.65-2.16-2.62-4.22-4.59-7-6.56-2.75-2.56-2.75-2.56-5-5v-2c-0.56-0.04-1.11-0.08-1.69-0.12-3.6-1.37-5.04-3.79-7.31-6.88v-2l-4-1v-2c-0.99-0.33-1.98-0.66-3-1-1.38-1.63-2.71-3.3-4-5l-4-4c-1.24-1.18-1.24-1.18-2.5-2.38-2.5-2.62-2.5-2.62-3.56-4.81-1.24-2.39-2.54-2.65-4.94-3.81-2.75-2.5-2.75-2.5-5-5v-2c-0.56-0.04-1.11-0.08-1.69-0.12-3.6-1.37-5.04-3.79-7.31-6.88v-2c-0.99-0.33-1.98-0.66-3-1l-1-2c-0.99-0.33-1.98-0.66-3-1-0.7-1.32-1.37-2.65-2-4l-2-1c-0.29-0.64-0.58-1.28-0.88-1.94-1.35-2.48-2.54-3.03-5.12-4.06v-3h-3c-0.25-0.64-0.5-1.28-0.75-1.94-1.04-2.26-1.04-2.26-3.25-2.56-0.66-0.16-1.32-0.33-2-0.5-1.06-1.94-1.06-1.94-2-4l-3-2v-2c-0.99-0.33-1.98-0.66-3-1-1.58-1.64-1.58-1.64-3.25-3.69-2.37-2.82-4.73-5.21-7.63-7.5-3.02-2.48-3.52-3.92-4.12-7.81-1.62-1.71-3.29-3.37-5-5-0.8-1.36-0.8-1.36-1.62-2.75-1.24-2.56-1.24-2.56-4.38-3.25v-2c-0.58-0.23-1.15-0.45-1.75-0.69-2.84-1.65-4.2-3.74-6.25-6.31-1.71-1.56-3.48-3.03-5.25-4.52-6.4-5.42-6.4-5.42-7.75-9.48-0.77-0.74-0.77-0.74-1.56-1.5-1.44-1.5-1.44-1.5-1.44-4.5-0.99-0.33-1.98-0.66-3-1-1.46-1.71-1.46-1.71-2.94-3.81-1.72-2.41-3.3-4.42-5.44-6.5-1.62-1.69-1.62-1.69-1.62-4.69h-3c-0.25-0.64-0.5-1.28-0.75-1.94-1.07-2.25-1.07-2.25-3.37-2.81-0.62-0.08-1.24-0.16-1.88-0.25v-4c-0.62-0.04-1.24-0.08-1.88-0.12-0.7-0.29-1.4-0.58-2.12-0.88-0.43-1.36-0.43-1.36-0.88-2.75-1.41-4.08-3.82-5.73-7.12-8.25-3.52-3.2-5.39-5.55-7-10l-2-1v-2c-0.72-0.23-1.44-0.45-2.19-0.69-3.49-1.63-5.4-3.3-7.81-6.31-0.81-3.81-0.81-3.81-1-7h-2c-0.25-0.78-0.5-1.57-0.75-2.38-1.48-3.11-2.22-3.24-5.25-4.62-2.75-2.5-2.75-2.5-5-5v-2c-0.64-0.23-1.28-0.45-1.94-0.69-2.06-1.31-2.06-1.31-2.68-3.87-0.13-0.81-0.25-1.61-0.38-2.44l-2-1c-0.31-0.83-0.62-1.65-0.94-2.5-0.35-0.83-0.7-1.65-1.06-2.5-0.99-0.33-1.98-0.66-3-1-0.69-2.06-0.69-2.06-1-4l-4-1c-0.23-1.05-0.45-2.1-0.69-3.19-1.12-4-3.3-5.95-6.31-8.81-0.53-1.36-0.53-1.36-1.06-2.75-0.31-0.74-0.62-1.49-0.94-2.25-2.04-0.89-2.04-0.89-4-1l-1-6-4-1c-0.09-0.6-0.19-1.21-0.29-1.83-0.87-2.67-1.88-3.32-4.15-4.92-2.92-2.33-4.03-3.82-4.75-7.5-0.38-3.8-0.38-3.8-2.93-5.25-0.62-0.16-1.24-0.33-1.88-0.5v-2h-2c-0.41-1.24-0.82-2.48-1.25-3.75-1.33-3.59-2.87-5.67-5.75-8.25v-2c-0.99-0.33-1.98-0.66-3-1-1.39-2.21-1.39-2.21-2.69-4.94-0.65-1.34-0.65-1.34-1.32-2.71-0.99-2.35-0.99-2.35-0.99-4.35-0.62-0.08-1.24-0.16-1.88-0.25-2.12-0.75-2.12-0.75-3.18-2.69-0.31-0.68-0.62-1.36-0.94-2.06l-3-2c-0.14-0.8-0.29-1.61-0.44-2.44-0.29-2.69-0.29-2.69-2.5-3.94-2.97-2.34-3.07-5.03-4.06-8.62-2.47-3.6-2.47-3.6-6-6v-6c-0.99-0.33-1.98-0.66-3-1v-4h-5c-0.06-1.24-0.12-2.48-0.19-3.75-0.41-3.48-0.53-4.01-3.31-6.44-0.82-0.6-1.65-1.19-2.5-1.81-0.62-2.44-0.62-2.44-1-5-1.28-2.75-1.28-2.75-3-5-0.99-0.33-1.98-0.66-3-1-0.73-1.85-0.73-1.85-1.19-4.06-0.16-0.74-0.31-1.47-0.48-2.23-0.11-0.56-0.22-1.13-0.33-1.71h-3c-0.16-0.94-0.16-0.94-0.33-1.9-0.16-0.82-0.32-1.63-0.48-2.48-0.15-0.81-0.3-1.62-0.46-2.46-0.61-2.52-0.61-2.52-3.73-4.16-0.31-1.11-0.62-2.23-0.94-3.38-1.11-3.8-2.19-5.04-5.06-7.62v-2c-0.99-0.33-1.98-0.66-3-1-0.15-0.96-0.15-0.96-0.3-1.94-1.01-5.88-2.55-10-5.7-15.1v-2l-2-1c-1.37-2.9-2-4.76-2-8l-2-1c-1.63-3.35-2-5.19-2-9h-3l-2-9h-2c-0.4-1.64-0.4-1.64-0.81-3.31-1.11-3.45-1.61-4.44-4.19-6.69-0.96-2.88-1.11-4.7-1.06-7.69 0.01-0.81 0.02-1.61 0.02-2.45 0.02-0.61 0.03-1.23 0.04-1.86h-3c-0.27-0.94-0.27-0.94-0.55-1.9-0.25-0.82-0.5-1.63-0.76-2.48-0.25-0.81-0.49-1.62-0.74-2.46-0.86-2.49-0.86-2.49-3.95-4.16-0.51-2.6-0.51-2.6-0.69-5.62-0.06-1.01-0.13-2.01-0.2-3.04-0.05-1.16-0.05-1.16-0.11-2.34h-2l-2-10c-0.99-0.33-1.98-0.66-3-1-0.11-0.69-0.22-1.37-0.33-2.08-0.16-0.9-0.32-1.8-0.48-2.73-0.15-0.9-0.3-1.79-0.46-2.71-0.52-2.52-0.52-2.52-2.27-3.98-2.05-2.11-1.89-3.74-2.02-6.62-0.09-2.62-0.09-2.62-0.44-4.88l-2-1c-0.56-2.48-0.56-2.48-1-5.62-0.73-7.7-0.73-7.7-4-14.4-0.24-2.86-0.42-5.7-0.56-8.56-0.05-0.81-0.09-1.62-0.13-2.45-0.11-1.99-0.21-3.99-0.31-5.99l-4-1c-0.06-1-0.12-2-0.18-3.04-0.09-1.34-0.17-2.68-0.26-4.02-0.08-1.31-0.16-2.62-0.24-3.98-0.3-3.7-0.75-7.29-1.32-11h-2c-1.24-3.73-1.23-7.27-1.32-11.2-0.02-0.79-0.04-1.59-0.06-2.41-0.06-2.53-0.12-5.07-0.18-7.61-0.05-1.72-0.09-3.44-0.13-5.16-0.11-4.22-0.21-8.43-0.31-12.6-0.99-0.33-1.98-0.66-3-1v-55l4-2c-0.02-0.98-0.03-1.97-0.05-2.98-0.05-3.65-0.09-7.3-0.11-11-0.02-1.58-0.04-3.16-0.07-4.74-0.03-2.28-0.05-4.55-0.06-6.82-0.02-0.7-0.03-1.41-0.05-2.14 0-4.99 0-4.99 1.82-7 0.5-0.45 1-0.9 1.52-1.37 0.56-2.57 0.56-2.57 0.66-5.47 0.07-1.07 0.14-2.13 0.22-3.23 0.06-1.11 0.12-2.22 0.18-3.36 0.13-2.2 0.27-4.4 0.41-6.6 0.06-0.98 0.11-1.95 0.17-2.96 0.36-2.38 0.36-2.38 2.36-4.38h3c-0.02-0.77-0.05-1.54-0.07-2.34-0.02-1-0.04-2-0.05-3.04-0.03-0.99-0.05-1.99-0.08-3.02 0.2-2.6 0.2-2.6 2.2-4.6 0.46-3.2 0.79-6.37 1.04-9.59 0.2-2 0.2-2 0.96-5.41l4-2v-12l4-2c0.71-3.11 0.71-3.11 0.75-6.62 0.06-1.19 0.11-2.38 0.17-3.61 0.03-0.91 0.05-1.83 0.08-2.77h4v-7l4-2c-0.08-1.05-0.16-2.1-0.25-3.19 0.29-4.46 1.34-5.56 4.25-8.81 0.53-1.36 0.53-1.36 1.06-2.75 0.47-1.11 0.47-1.11 0.94-2.25 0.99-0.33 1.98-0.66 3-1v-7c0.64-0.19 1.28-0.37 1.94-0.56 0.68-0.48 1.36-0.95 2.06-1.44 0.16-1.15 0.33-2.31 0.5-3.5 0.16-1.15 0.33-2.31 0.5-3.5 2.06-1.44 2.06-1.44 4-2v-6c0.64-0.19 1.28-0.37 1.94-0.56 0.68-0.48 1.36-0.95 2.06-1.44 0.16-1.15 0.33-2.31 0.5-3.5 0.16-1.15 0.33-2.31 0.5-3.5 2.06-1.44 2.06-1.44 4-2v-5h4c0.08-1.11 0.17-2.23 0.25-3.38 0.25-1.19 0.5-2.39 0.75-3.62 2-1.19 2-1.19 4-2 0.36-1.33 0.7-2.66 1-4 0.99-0.33 1.98-0.66 3-1 0.04-0.85 0.08-1.69 0.12-2.56 1.71-6.7 7.13-10.9 12.4-15.1 1.78-1.48 1.78-1.48 3.52-4.36h3v-6c0.64-0.25 1.28-0.5 1.94-0.75 0.68-0.41 1.36-0.82 2.06-1.25 0.12-0.6 0.25-1.2 0.38-1.81 1.03-3.61 3.64-5 6.62-7.19h2c0.06-0.56 0.12-1.11 0.19-1.69 1.16-3.3 3.21-5.03 5.81-7.31h2l2-4h3c0.1-0.64 0.21-1.28 0.31-1.94 0.23-0.68 0.46-1.36 0.69-2.06 0.99-0.33 1.98-0.66 3-1l1-5h4l2-4h3c0.15-0.96 0.15-0.96 0.31-1.94 0.34-1.02 0.34-1.02 0.69-2.06 0.99-0.33 1.98-0.66 3-1 0.27-0.58 0.54-1.15 0.81-1.75 1.75-3.32 4.17-5.08 7.19-7.25h4l1-4c0.6-0.08 1.2-0.17 1.81-0.25 2.79-0.96 3.47-2.43 5.19-4.75h3v-3h4c0.15-0.93 0.15-0.93 0.31-1.88 0.69-2.12 0.69-2.12 3.69-4.12 2.69-0.12 2.69-0.12 5 0l2-4h2c0.19-0.6 0.37-1.2 0.56-1.81 2.13-3.24 4.89-3.84 8.44-5.19 2.27-0.84 2.27-0.84 4-2 0.27-0.68 0.54-1.36 0.81-2.06 0.39-0.64 0.79-1.28 1.19-1.94 2.33-0.38 4.66-0.71 7-1 1.63-1.46 1.63-1.46 3-3 0.85-0.14 1.69-0.29 2.56-0.44 0.81-0.18 1.61-0.37 2.44-0.56 0.31-0.64 0.62-1.28 0.94-1.94 1.06-2.06 1.06-2.06 3.56-3.06 1.73-0.5 1.73-0.5 3.5-1 1.65-0.63 3.3-1.28 4.94-1.94 0.85-0.34 1.71-0.69 2.59-1.04 2.17-0.9 4.32-1.82 6.47-2.77 3-1.25 3-1.25 5-1.25 0.19-0.64 0.37-1.28 0.56-1.94 0.48-0.68 0.95-1.36 1.44-2.06 3.5-0.5 3.5-0.5 7-1 0.31-0.66 0.62-1.32 0.94-2 0.35-0.66 0.7-1.32 1.06-2 3.94-0.56 3.94-0.56 6.03-0.63 2.08-0.2 2.08-0.2 3.44-1.87 2.44-2.4 5.09-1.96 8.37-2.09 2.24-0.21 2.24-0.21 3.6-1.88 2.71-2.65 6.33-2.44 9.97-2.91 2.63-0.38 2.63-0.38 4.08-2.17 1.51-1.45 1.51-1.45 4.21-1.74 0.99 0.03 1.97 0.07 2.99 0.1 0.99 0.03 1.99 0.06 3.01 0.08 0.76 0.04 1.52 0.07 2.3 0.11 0.18-0.65 0.35-1.3 0.53-1.97 0.73-1 0.73-1 1.47-2.03 3.26-0.45 6.31-0.51 9.59-0.49 2.25-0.01 2.25-0.01 5.41-0.51l2-4h21l2-4c34.5-1.19 34.5-1.19 50-1l2-4zm407 52 1 2zm-35 23 1 2zm-22 17 1 2zm236 13c-2.86 0.32-5.64 0.52-8.51 0.63-1.26 0.07-1.26 0.07-2.55 0.13-2.68 0.13-5.37 0.25-8.06 0.36-1.83 0.09-3.65 0.18-5.47 0.27-4.47 0.21-8.94 0.41-13.4 0.61l-2 4h-16l-2 4c-1.22-0.04-2.43-0.08-3.69-0.12-3.52 0.01-6.22 0.25-9.31 2.12-0.65 2.04-0.65 2.04-1 4-0.84-0.02-1.69-0.05-2.55-0.07-1.1-0.02-2.2-0.04-3.33-0.05-1.09-0.03-2.18-0.05-3.3-0.08-2.96-0.1-2.96-0.1-4.82 2.2-2.26 0.58-4.51 0.95-6.81 1.34-2.27 0.49-2.27 0.49-3.72 2.2-1.88 1.87-2.93 1.81-5.53 1.9-1.3 0.18-2.6 0.37-3.94 0.56-1.59 1.92-1.59 1.92-2 4-0.95-0.02-1.9-0.04-2.88-0.06-3.03-0.17-3.03-0.17-5.12 1.06v4h-7c-0.23 0.62-0.45 1.24-0.69 1.88-1.69 2.73-3.3 3.17-6.31 4.12v2c-1.39 0.15-1.39 0.15-2.81 0.31-3.15 0.37-3.15 0.37-4.63 2.19-1.56 1.5-1.56 1.5-4.94 1.88-4.45 0.76-5.85 2.12-8.62 5.62-0.86 2.17-0.86 2.17-1 4-1.13 0.12-2.27 0.25-3.44 0.38-1.17 0.2-2.35 0.41-3.56 0.62l-1 2c-0.85 0.47-1.69 0.95-2.56 1.44-0.81 0.51-1.61 1.03-2.44 1.56v3c-0.64 0.1-1.28 0.21-1.94 0.31-0.68 0.23-1.36 0.46-2.06 0.69l-1 3c-1.33 0.34-2.66 0.68-4 1l-2 3c-1.36 0.37-1.36 0.37-2.75 0.75-4.45 1.71-6.37 4.58-9.25 8.25-3.49 3.91-3.49 3.91-6 4.38-3.38 1.05-4.37 3.64-6 6.62v4l-5 1-1 3h-4v4c-0.96 0.43-0.96 0.43-1.94 0.88-2.21 0.95-2.21 0.95-3.06 3.12-2.06 0.62-2.06 0.62-4 1-0.15 0.9-0.15 0.9-0.31 1.81-0.69 2.19-0.69 2.19-2.19 3.57-2.14 2.31-2.16 4.56-2.5 7.62h-4c-0.15 0.9-0.15 0.9-0.31 1.81-0.78 2.49-1.84 3.42-3.69 5.19v2l-4 1-1 5h-2v2l-5 2v3c-0.72 0.04-1.44 0.08-2.19 0.12-4.08 1.27-5.3 3.46-7.81 6.88l-1 2c-2.06 0.62-2.06 0.62-4 1v3h-43l-1-3c-2.02-0.73-2.02-0.73-4-1v-3c-0.57-0.15-1.13-0.29-1.71-0.45-2.26-0.69-4.24-1.37-6.29-2.55-0.88-3.12-0.88-3.12-1-6l-2-1-2-3c-1.01-0.31-2.02-0.62-3.06-0.94-0.97-0.35-1.94-0.7-2.94-1.06-0.75-1.87-0.75-1.87-1-4-0.64-1.35-1.3-2.69-2-4h-3v-2c-1.65-1.35-3.32-2.68-5-4l-2-3c-2.05-1.19-2.05-1.19-4-2 0.06-0.74 0.12-1.49 0.19-2.25-0.22-3.23-0.97-4.45-3.19-6.75h-2v-3h-3l-1-3c-1.65-1.36-3.31-2.69-5-4l-1-2h-2l-1-4-4-1v-2c-2.76-2.17-2.76-2.17-5.56-2.31-0.81-0.23-1.61-0.46-2.44-0.69-0.7-1.65-1.36-3.32-2-5-3.2-2.38-3.2-2.38-7-3l-1-3-2-1c-2-1-2-1-3-4-2.12-2.79-2.12-2.79-5-5-3.21-0.42-3.21-0.42-6 0-0.27-0.8-0.54-1.61-0.81-2.44-0.39-0.84-0.79-1.69-1.19-2.56-0.99-0.33-1.98-0.66-3-1l-2-3c-0.99-0.33-1.98-0.66-3-1-0.62-0.68-1.24-1.36-1.88-2.06-1.98-2.21-1.98-2.21-4.87-2.19-0.74 0.08-1.49 0.16-2.25 0.25l-1-3c-1.07-0.25-2.14-0.5-3.25-0.75-3.97-1.32-4.12-1.39-6-4.69-2.25-3.66-4.46-4.41-8.56-5.5-1.73-0.38-3.45-0.74-5.19-1.06v-2c-0.57-0.11-1.13-0.22-1.71-0.33-0.74-0.16-1.47-0.32-2.23-0.48-0.73-0.15-1.46-0.3-2.21-0.46-0.92-0.36-0.92-0.36-1.85-0.73l-1-3c-2.31-0.33-4.62-0.66-7-1v-2c-1.01-0.4-1.01-0.4-2.05-0.8-0.89-0.36-1.78-0.71-2.7-1.08-1.32-0.52-1.32-0.52-2.67-1.05-2.58-1.07-2.58-1.07-4.69-2.17-2.83-1.35-5.8-1.47-8.89-1.9-1.68-0.64-3.35-1.3-5-2-0.87-0.12-1.73-0.25-2.62-0.38-2.38-0.62-2.38-0.62-3.55-2.58-2.68-2.99-5.72-2.95-9.52-3.29-0.7-0.08-1.4-0.15-2.12-0.23-1.73-0.19-3.46-0.36-5.19-0.52l-1-3-21-1-1-3c-9.38-0.74-18.7-1.26-28.1-1.56-2.08-0.07-4.17-0.14-6.26-0.22-1.34-0.05-2.68-0.09-4.02-0.13-1.79-0.07-1.79-0.07-3.62-0.13-3.02-0.11-3.02-0.11-5.96 1.04v-2c-0.94 0.23-0.94 0.23-1.9 0.47-4.25 0.73-8.47 0.88-12.8 1.07-0.92 0.04-1.85 0.08-2.8 0.13-2.94 0.13-5.89 0.26-8.83 0.39-2 0.09-4 0.19-6 0.28-4.9 0.22-9.79 0.44-14.7 0.66l-2 4c-1.12-0.03-2.24-0.07-3.39-0.11-1.48-0.02-2.95-0.05-4.42-0.08-0.74-0.02-1.48-0.05-2.24-0.07-4.14-0.2-4.14-0.2-7.61 1.71-0.67 0.76-0.67 0.76-1.34 1.55-2.63 0.66-2.63 0.66-5.56 1.06-4.2 0.46-4.2 0.46-7.44 2.94v3c-1.48-0.02-1.48-0.02-2.99-0.04-1.28 0-2.56-0.01-3.89-0.02-1.91-0.02-1.91-0.02-3.86-0.04-3.15-0.13-3.15-0.13-5.26 1.1v2c-1.09-0.04-2.19-0.08-3.31-0.12-3.78-0.2-3.78-0.2-6.69 2.12v2c-0.77 0.03-1.54 0.05-2.34 0.08-1 0.05-2 0.11-3.04 0.17-0.99 0.05-1.99 0.09-3.02 0.14-0.86 0.2-1.72 0.4-2.6 0.61-1.2 1.96-1.2 1.96-2 4-1.99 0.39-3.99 0.72-6 1-2.36 1.31-2.36 1.31-4 3v2c-0.95-0.19-1.9-0.37-2.88-0.56-3.02-0.73-3.02-0.73-5.12 0.56v4l-4 1v2c-1.36-0.09-1.36-0.09-2.75-0.19-3.54 0.21-4.78 0.72-7.25 3.19v2h-6c-0.37 0.96-0.37 0.96-0.75 1.94-1.25 2.06-1.25 2.06-3.37 2.81-0.62 0.08-1.24 0.16-1.88 0.25l-1 4c-0.62 0.1-1.24 0.21-1.88 0.31-2.49 0.57-2.49 0.57-4.12 3.69-2 0.67-4 1.33-6 2l-2 3c-1.49 0.5-1.49 0.5-3 1l-1 2c-0.76 0.43-1.53 0.87-2.31 1.31-3.01 1.89-4.71 3.75-6.69 6.69v3h-4l-1 2c-1.13 0.45-2.27 0.91-3.44 1.38-3.71 1.69-4.21 2.03-5.56 5.62-0.77 0.68-0.77 0.68-1.56 1.38-2.06 2.32-2.1 4.6-2.44 7.62l-4 1v2l-5 1-3 9c-0.72 0.04-1.44 0.08-2.19 0.12-4.04 1.26-5.48 3.42-7.81 6.88-0.42 2.75-0.42 2.75 0 5l-4 2v3c-0.96 0.22-0.96 0.22-1.94 0.44-2.04 0.37-2.04 0.37-3.06 1.56-0.07 1.35-0.08 2.71-0.06 4.06 0.02 1.3 0.04 2.6 0.06 3.94-0.6 0.27-1.2 0.54-1.81 0.81-2.32 1.26-3.6 2.09-5.19 4.19-0.31 1.18-0.62 2.35-0.94 3.56-0.35 1.14-0.7 2.27-1.06 3.44-1.33 0.68-2.66 1.35-4 2-0.34 2-0.67 4-1 6-0.68 0.45-1.36 0.91-2.06 1.38-2.14 1.41-2.14 1.41-2.2 3.58 0.01 2.01 0.13 4.03 0.26 6.04h-3v9l-4 1c-1.72 2.58-2 3.85-2 7-0.65 0.22-1.3 0.44-1.96 0.66-0.68 0.44-1.35 0.88-2.04 1.34-0.59 2.55-0.59 2.55-0.56 5.44-0.1 4.32-0.42 5.61-3.44 8.56-0.72 2.69-0.72 2.69-1.06 5.62-0.41 2.98-0.41 2.98-0.94 5.38l-2 1c-1.25 3.36-1.1 6.7-1.06 10.2 0.01 1.08 0.02 2.16 0.02 3.27 0.02 0.82 0.03 1.64 0.04 2.48l-4 2-1 21h-2c-2.07 6.77-2.24 13-2.12 20 0 1.06 0.01 2.12 0.02 3.21 0.03 2.6 0.06 5.19 0.1 7.79l-4 2v24c0.99 0.33 1.98 0.66 3 1 0.01 0.86 0.03 1.73 0.04 2.61 0.07 3.21 0.14 6.41 0.22 9.62 0.04 1.38 0.06 2.77 0.09 4.15 0.03 2 0.08 3.99 0.14 5.98 0.02 1.2 0.05 2.4 0.08 3.64 0.47 3.3 1 3.91 3.43 6 0.46 2.52 0.79 4.9 1 7.44 0.31 5.1 0.31 5.1 2.53 9.59 2.73 3.66 1.95 8.44 2.06 12.8 0.14 1.03 0.27 2.06 0.41 3.12l3 2c0.55 2.76 0.93 5.34 1.19 8.12 0.12 1.14 0.12 1.14 0.25 2.29 0.2 1.86 0.38 3.73 0.56 5.59h2c1 3.01 1.3 5.54 1.56 8.69 0.09 0.99 0.17 1.99 0.26 3.01 0.06 0.76 0.12 1.52 0.18 2.3 0.99 0.33 1.98 0.66 3 1 0.01 0.69 0.03 1.37 0.04 2.08 0.15 2.72 0.35 5.26 0.96 7.92 2.46 1.64 2.46 1.64 5 3 0.68 2.66 0.78 5.25 1 8l2 2c0.59 2.81 0.95 5.62 1.34 8.47 0.45 2.87 0.45 2.87 3.66 4.53 0.69 3.62 0.69 3.62 1 7 0.99 0.33 1.98 0.66 3 1 0.16 2.02 0.33 4.04 0.49 6.05 0.38 2.35 0.38 2.35 3.51 3.95 0.67 2.33 1.33 4.67 2 7l3 2c0.34 2.33 0.67 4.67 1 7 0.48 0.48 0.97 0.95 1.47 1.44 2.38 2.43 2.38 5.14 2.91 8.4 0.72 2.51 1.58 3.56 3.62 5.16h2c0.15 0.77 0.15 0.77 0.31 1.56 0.94 3.34 2.14 6.33 3.69 9.44 0.67 0.31 1.35 0.63 2.04 0.95 1.96 1.05 1.96 1.05 2.65 2.93 0.1 0.74 0.2 1.48 0.31 2.24 0.85 4.67 2.21 8.99 5 12.9 0.99 0.33 1.98 0.66 3 1v6c0.99 0.33 1.98 0.66 3 1 0.12 1.11 0.12 1.11 0.25 2.25 0.9 3.29 2.34 4.41 4.75 6.75 0.36 1.33 0.7 2.66 1 4 0.47 0.43 0.95 0.87 1.44 1.31 1.56 1.69 1.56 1.69 2.5 5.13 1.11 3.74 2.04 5.18 5.06 7.56 0.99 0.33 1.98 0.66 3 1 0.1 1.11 0.21 2.23 0.31 3.38 0.23 1.19 0.46 2.39 0.69 3.62l3 2c0.5 1.49 0.5 1.49 1 3 0.64 0.25 1.28 0.5 1.94 0.75 2.06 1.25 2.06 1.25 3.31 4.87 0.25 1.12 0.5 2.23 0.75 3.38h2c0.4 1.42 0.4 1.42 0.81 2.88 0.94 3.37 0.94 3.37 4.19 5.12 0.34 1.67 0.67 3.33 1 5 0.98 1.02 1.98 2.02 3 3 1.03 1.98 2.03 3.98 3 6 2.02 4.11 2.02 4.11 6 6l1 3c0.68 0.62 0.68 0.62 1.38 1.25 2.4 2.59 3.32 5.47 4.62 8.75h3c0.12 0.8 0.25 1.61 0.38 2.44 0.2 0.84 0.41 1.69 0.62 2.56l2 1c0.27 0.8 0.54 1.61 0.81 2.44 0.94 2.8 0.94 2.8 3.75 3.56 0.81 0.33 1.61 0.66 2.44 1 0.81 2.62 0.81 2.62 1 5h2v3l5 2c-0.06 0.93-0.12 1.86-0.19 2.81-0.14 3.14-0.14 3.14 1.57 4.75 0.8 0.71 0.8 0.71 1.62 1.44 1.19 2.69 1.19 2.69 2 5h4l1 3 2 1c0.23 1.05 0.45 2.1 0.69 3.19 1.04 4.17 3.38 5.95 6.75 8.45 1.56 1.36 1.56 1.36 2.56 4.36l3 2c0.31 0.99 0.62 1.98 0.94 3 1.27 3.59 1.84 3.44 5.06 5 1.75 3.13 1.75 3.13 3 6h2v3c1.48 1.21 1.48 1.21 3.38 2.25 4.02 2.67 4.38 5.11 5.62 9.75 2.84 2.67 2.84 2.67 6 5 1.36 1.64 2.7 3.31 4 5 2.02 2.27 2.02 2.27 4 4h2v2h2c0.12 1.13 0.25 2.27 0.38 3.44 0.2 1.17 0.41 2.35 0.62 3.56l2 1c0.72 1.64 1.39 3.31 2 5h4l1 4h2l1 3c1.29 1.38 2.63 2.71 4 4l4 4c1.05 0.96 1.05 0.96 2.12 1.94 2.07 2.27 2.77 4.21 3.88 7.06 2.03 3.01 3.2 4.7 6.62 6 2.38 1 2.38 1 3.38 3.25 0.33 0.91 0.66 1.82 1 2.75 3.06 4.37 3.06 4.37 7.56 6.94 3.28 1.43 3.83 3.35 5.4 6.45 1.51 2.34 3.46 2.77 6.04 3.61l1 3h2c0.23 0.56 0.45 1.11 0.69 1.69 1.27 2.48 1.27 2.48 3.69 4.69 2.62 2.62 2.62 2.62 4.74 5.93 0.62 0.89 1.24 1.78 1.88 2.69h3c0.09 1.36 0.09 1.36 0.19 2.75 1.02 4.08 2.46 4.84 5.81 7.25 0.68 0.89 1.36 1.77 2.06 2.69 1.68 2.47 1.68 2.47 4.06 2.81 0.62 0.16 1.24 0.33 1.88 0.5 0.69 1.66 1.35 3.33 2 5 2.31 2.56 2.31 2.56 5 5 0.85 0.89 1.69 1.77 2.56 2.69 2.23 2.34 2.23 2.34 4.63 3.37 2.35 1.22 2.68 2.61 3.81 4.94 0.99 0.33 1.98 0.66 3 1 0.67 2 1.33 4 2 6 0.99 0.33 1.98 0.66 3 1 1.22 1.45 2.43 2.89 3.61 4.37 2.92 3.42 6.07 6.19 10.4 7.63 1.66 2.24 3.05 4.59 4.5 6.97 1.41 2.32 1.41 2.32 4.5 3.03l2 3c2.45 2.58 4.83 4.88 7.69 7 2.31 2 2.31 2 3.31 4.56 1.32 3.21 2.93 3.98 6 5.44h2c0.23 0.56 0.45 1.11 0.69 1.69 1.69 2.97 3.78 5.03 6.31 7.31h2c0.21 0.72 0.41 1.44 0.62 2.19 1.86 3.78 3.98 5.33 7.38 7.81h2c0.23 0.56 0.45 1.11 0.69 1.69 2.22 3.92 5.41 6.64 9 9.31 2.31 2 2.31 2 3.19 4.5 1.48 3.3 3.32 3.93 6.45 5.54 2.19 1.26 3.25 2.89 4.67 4.96 0.8 0.64 1.61 1.28 2.44 1.94 2.56 2.06 2.56 2.06 4.62 4.68 1.9 2.33 3.18 3.3 5.94 4.38v2h6c0.23 0.54 0.45 1.07 0.69 1.62 1.78 3.23 3.79 5.68 6.31 8.38h3l1 3c2.38 2.71 2.38 2.71 5 5h2l1 3 3 2 1 3c0.74 0.25 1.49 0.49 2.25 0.75 3.47 1.58 4.51 3.53 6.55 6.64 1.46 1.96 2.98 2.66 5.2 3.61l1 3c1.38 1.71 1.38 1.71 3 3h2l1 2c0.91 0.25 1.82 0.49 2.75 0.75 3.22 1.24 3.92 1.75 5.94 4.31 2.04 3.16 2.04 3.16 5.31 3.94l1 3c1.88 2.14 3.38 3.73 6 4.88 2.98 1.67 4.21 4.26 6 7.12 4.09 4.09 7.51 6.21 13 8 1.69 1.5 1.69 1.5 3 3l3 2 2 3c4.91 5.63 10.1 10 17 13h2c0.19 0.91 0.37 1.82 0.56 2.75 1.71 3.86 3.06 4.57 6.71 6.37 1.73 0.88 1.73 0.88 3.85 2.63 2.41 1.6 4.05 1.49 6.88 1.25l1 3c2.69 0.96 2.69 0.96 5.88 1.56 3.71 0.79 5.93 1.31 9.12 3.44 6.2 0.76 11.6-1.04 17-4l2-3c2-0.33 4-0.67 6-1l2-3c2.32-0.7 4.66-1.36 7-2 3.83-1.73 3.83-1.73 5.81-5.19 0.06-0.6 0.13-1.19 0.19-1.81 1.11-0.27 2.23-0.54 3.38-0.81 3.84-0.85 3.84-0.85 5.62-4.19 0.99-0.33 1.98-0.66 3-1 1.75-1.73 1.75-1.73 3.44-3.81 0.61-0.72 1.22-1.44 1.86-2.19 0.56-0.66 1.12-1.32 1.7-2 2.52-2.74 4.57-4.53 8-6v-2c1.52-0.25 1.52-0.25 3.06-0.5 4.49-1.23 6.59-4.15 9.36-7.72 1.58-1.78 1.58-1.78 4.58-2.78 0.14-0.64 0.29-1.28 0.44-1.94 0.56-2.06 0.56-2.06 2.62-3.31 0.64-0.25 1.28-0.49 1.94-0.75v-2c0.99-0.33 1.98-0.66 3-1l2-3c2.13-1.19 2.13-1.19 4-2v-2h2l2-3c2.33-1 4.67-2 7-3l2-3c0.99-0.33 1.98-0.66 3-1 1.81-2.64 2.98-4.95 4-8 1.36-0.12 1.36-0.12 2.75-0.25 3.7-0.85 5-1.73 7.25-4.75v-4c0.96-0.19 0.96-0.19 1.94-0.38 0.68-0.2 1.36-0.41 2.06-0.62l1-2c0.99-0.33 1.98-0.66 3-1l1-5c0.6-0.09 1.19-0.19 1.81-0.28 2.7-0.89 3.54-1.99 5.25-4.22 2.06-2.67 2.63-3.4 5.94-4.5 0.68-1.33 1.35-2.66 2-4 1.77-1.64 3.63-3.07 5.54-4.54 1.81-1.47 1.81-1.47 1.46-4.46 1.14-0.15 1.14-0.15 2.31-0.31 2.98-0.76 3.63-1.54 5.69-3.69 0.78-0.27 1.57-0.54 2.38-0.81 3.71-1.68 5.22-3.9 7.62-7.19v-2c0.6-0.09 1.19-0.19 1.81-0.28 2.7-0.89 3.54-1.99 5.25-4.22 2.06-2.67 2.63-3.4 5.94-4.5l1-5h3l2-3c0.99-0.33 1.98-0.66 3-1l1-5c1.11-0.06 1.11-0.06 2.25-0.12 3.88-1.24 4.83-3.4 6.75-6.88v-2l4-1v-3l4-1v-3c0.6-0.09 1.19-0.19 1.81-0.28 2.7-0.89 3.54-1.99 5.25-4.22 2.06-2.67 2.63-3.4 5.94-4.5l1-5h3c1.75-1.97 3.38-3.93 5-6 2.16-2.41 2.82-2.94 6-4 0.58-0.91 1.15-1.82 1.75-2.75 2.04-2.94 3.07-3.97 5.94-5.81 2.93-1.93 2.93-1.93 4.25-5.25 0.03-1.09 0.03-1.09 0.06-2.19 0.84-0.06 0.84-0.06 1.69-0.12 3.6-1.37 5.04-3.79 7.31-6.88v-2c0.56-0.23 1.11-0.45 1.69-0.69 4.87-2.76 7.44-6.12 9.31-11.3l2-1c0.25-0.6 0.49-1.2 0.75-1.81 1.75-3.07 4.32-4.24 7.25-6.19 2.36-2.43 4.48-4.95 6-8 0.99-0.33 1.98-0.66 3-1 0.33-0.83 0.66-1.65 1-2.5 0.33-0.83 0.66-1.65 1-2.5 0.99-0.33 1.98-0.66 3-1v-3c0.93-0.09 0.93-0.09 1.88-0.19 0.7-0.27 1.4-0.53 2.12-0.81 0.33-0.83 0.66-1.65 1-2.5 0.33-0.83 0.66-1.65 1-2.5 1.33-0.35 2.66-0.69 4-1 3.06-3.04 3.06-3.04 4-7 0.56-0.27 1.11-0.54 1.69-0.81 0.76-0.39 1.52-0.79 2.31-1.19 0.8-0.41 1.61-0.83 2.44-1.25 3.22-2.2 5.1-4.71 7.56-7.75l3-2c0.16-0.68 0.33-1.36 0.5-2.06 0.16-0.64 0.33-1.28 0.5-1.94 0.99-0.33 1.98-0.66 3-1v-4l4-1 1-4c0.9-0.03 0.9-0.03 1.81-0.06 2.58-0.81 2.58-0.81 3.57-4.19 0.23-0.63 0.46-1.26 0.7-1.91 1.05-2.1 2.14-3.09 3.98-4.53 2.82-2.21 3.47-3.25 4.94-6.31 2.12-1.25 2.12-1.25 4-2v-2c0.99-0.33 1.98-0.66 3-1v-3l4-1c0.27-1.09 0.54-2.19 0.81-3.31 1.11-3.44 1.56-4.5 4.19-6.69l2-3c0.99-0.33 1.98-0.66 3-1 0.73-2.02 0.73-2.02 1-4h2c0.27-0.64 0.54-1.28 0.81-1.94 1.19-2.06 1.19-2.06 4.19-3.06 0.7-1.32 1.37-2.65 2-4l2-1c0.31-1.15 0.62-2.31 0.94-3.5 0.35-1.15 0.7-2.31 1.06-3.5 0.99-0.33 1.98-0.66 3-1l2-3c0.99-0.33 1.98-0.66 3-1 0.7-1.65 1.37-3.32 2-5l2-1c0.31-1.15 0.62-2.31 0.94-3.5 0.35-1.15 0.7-2.31 1.06-3.5 0.99-0.33 1.98-0.66 3-1 1.81-2.64 2.98-4.95 4-8 2.06-0.69 2.06-0.69 4-1 0.1-0.64 0.21-1.28 0.31-1.94 0.23-0.68 0.46-1.36 0.69-2.06 0.99-0.33 1.98-0.66 3-1 0.8-1.87 0.8-1.87 1.19-4.06 0.24-1.1 0.24-1.1 0.48-2.23 0.11-0.56 0.22-1.13 0.33-1.71 0.96-0.19 0.96-0.19 1.94-0.38 0.68-0.2 1.36-0.41 2.06-0.62l1-2c0.99-0.33 1.98-0.66 3-1 0.7-1.65 1.37-3.32 2-5l2-1c0.31-1.15 0.62-2.31 0.94-3.5 0.35-1.15 0.7-2.31 1.06-3.5 0.99-0.33 1.98-0.66 3-1 0.7-1.32 1.37-2.65 2-4l2-1c0.29-1.11 0.58-2.23 0.88-3.38 1.19-3.84 1.86-4.56 5.12-6.62v-2h2l1-5c0.9-0.03 0.9-0.03 1.81-0.06 2.61-0.83 2.61-0.83 3.81-4.44 0.46-1.15 0.91-2.31 1.38-3.5l2-1 1-2c1-2 1-2 3-3 0.71-1.67 0.71-1.67 1.44-3.38 1.36-3.15 2.14-4.43 4.56-6.62v-2h3c0.12-1.92 0.12-1.92 0.25-3.88 0.27-2.22 0.27-2.22 0.75-4.12 1.94-1.25 1.94-1.25 4-2 1.13-2.02 1.13-2.02 2-4l2-1c0.46-1.73 0.46-1.73 0.94-3.5 0.52-1.73 0.52-1.73 1.06-3.5 0.99-0.33 1.98-0.66 3-1 1.17-1.69 1.17-1.69 2.06-3.75 0.34-0.72 0.68-1.44 1.03-2.18 0.71-1.61 1.35-3.24 1.97-4.88 1.01-2.35 2.16-3.41 3.94-5.19 0.67-1.66 1.34-3.33 2-5l2-1 1-2c1-2 1-2 3-3 0.47-1.9 0.47-1.9 0.62-4.06 0.13-1.3 0.25-2.6 0.38-3.94h4c0.1-1.28 0.21-2.56 0.31-3.88 0.18-2.17 0.18-2.17 0.69-4.12l3-2c1.03-2.32 2.04-4.65 3-7l2-2v-4l5-1c0.25-0.99 0.49-1.98 0.75-3 1.21-4.23 2.92-8.26 5.25-12l2-1c0.2-2 0.39-4.01 0.59-6.01 0.59-2.87 2.28-4.06 4.41-5.99 0.7-1.99 1.37-3.99 2-6l2-1c0.14-1.13 0.29-2.27 0.44-3.44 0.18-1.17 0.37-2.35 0.56-3.56l3-2c0.41-2.07 0.44-4.02 0.5-6.12 0.16-0.62 0.33-1.24 0.5-1.88 0.66-0.32 1.32-0.64 2-0.97 0.66-0.34 1.32-0.68 2-1.03 0.59-2.12 0.59-2.12 0.56-4.5 0.07-2.41 0.07-2.41 0.44-4.5l3-2c0.47-1.9 0.47-1.9 0.5-4 0.09-2.12 0.09-2.12 0.5-4l3-2c0.66-2.82 0.95-5.6 1.28-8.47 0.24-0.83 0.47-1.67 0.72-2.53 2.03-1.12 2.03-1.12 4-2 0.41-2.32 0.74-4.66 1-7l2-1c0.61-3.06 0.96-6.12 1.34-9.21 0.66-2.79 0.66-2.79 3.66-4.79 0.47-2.82 0.47-2.82 0.5-6 0.09-3.25 0.09-3.25 0.5-6l3-2c0.47-2.54 0.79-4.94 1-7.5s0.53-4.96 1-7.5l3-2c0.31-2.72 0.47-5.27 0.5-8s0.19-5.28 0.5-8l3-2c0.59-2.31 0.59-2.31 0.69-5 0.09-1.46 0.09-1.46 0.19-2.96 0.17-4.35 0.2-8.69 0.12-13 0.99-0.33 1.98-0.66 3-1 1.07-3.22 1.13-5.55 1.13-8.94 0-1.22 0.01-2.44 0.01-3.7 0-1.33 0-2.67-0.01-4 0-1.38 0-2.75 0.01-4.12 0-2.87 0-5.75-0.01-8.63-0.01-3.67 0-7.35 0-11 0.01-2.83 0.01-5.67 0-8.5 0-2.01 0.01-4.02 0.01-6.03-0.01-1.85-0.01-1.85-0.01-3.74v-3.26c-0.13-3.1-0.56-6.02-1.13-9.06h-2c-0.91-5.64-1.3-11.2-1.56-16.9-0.07-1.31-0.07-1.31-0.13-2.65-0.11-2.14-0.21-4.27-0.31-6.41-0.99-0.33-1.98-0.66-3-1-0.04-1.05-0.07-2.1-0.11-3.18-0.07-1.37-0.14-2.75-0.2-4.13-0.03-0.69-0.05-1.38-0.07-2.09-0.22-4.13-0.63-5.85-3.62-8.6-0.73-2.92-0.73-2.92-1.19-6.19-0.16-1.08-0.31-2.17-0.48-3.29-0.16-1.25-0.16-1.25-0.33-2.52-0.99-0.33-1.98-0.66-3-1-0.06-1.37-0.06-1.37-0.11-2.77-0.07-1.19-0.13-2.38-0.2-3.61-0.06-1.18-0.12-2.36-0.18-3.58-0.17-1-0.34-2.01-0.51-3.04l-3-2c-0.95-2.16-0.95-2.16-1.69-4.62-0.25-0.82-0.5-1.64-0.76-2.48-0.18-0.63-0.36-1.25-0.55-1.9h-2v-10l-4-1c-0.7-1.99-1.37-3.99-2-6-0.99-0.33-1.98-0.66-3-1l-1-8c-0.99-0.33-1.98-0.66-3-1-0.71-2.32-1.37-4.66-2-7-0.97-1.68-1.97-3.35-3-5v-2c-0.62-0.21-1.24-0.41-1.88-0.62-2.96-1.92-3.14-4.08-4.12-7.38l-2-1c-0.62-2.56-0.62-2.56-1-5-0.62-0.08-1.24-0.17-1.88-0.25-2.12-0.75-2.12-0.75-3.18-2.5-0.47-1.11-0.47-1.11-0.94-2.25-0.54-0.85-1.07-1.69-1.62-2.56-1.38-2.44-1.38-2.44-1.38-5.44l-2-1c-0.29-0.66-0.58-1.32-0.88-2-0.37-0.66-0.74-1.32-1.12-2-0.66-0.14-1.32-0.29-2-0.44-0.66-0.18-1.32-0.37-2-0.56-0.27-0.76-0.54-1.53-0.81-2.31-1.34-3.03-1.87-3.27-4.69-4.69-3.4-1.74-3.4-1.74-4.44-4.38-1.47-3.64-3.97-4.96-7.18-7.09-2.06-1.68-2.88-3.1-3.88-5.53h-2v-2c-0.7-0.39-1.4-0.78-2.12-1.19-3.75-2.36-6.1-5.41-8.88-8.81-3.29-3.93-6.09-4.7-11-6l-1-2h-2v-2h-2l-1-3c-1.11-0.08-2.23-0.16-3.38-0.25-3.62-0.75-3.62-0.75-5.06-2.81-0.18-0.64-0.37-1.28-0.56-1.94h-3l-1-3c-2.73-1.1-5.04-2-8-2l-1-4h-3v-3c-3.46-0.99-3.46-0.99-7-2l-1 1-1-3c-2.07-0.91-2.07-0.91-4.5-1.5-2.47-0.66-2.47-0.66-4.5-1.5l-1-3h-8l-1-3c-1.18-1.42-1.18-1.42-4.56-1.06-1.7 0.03-1.7 0.03-3.44 0.06-0.27-0.64-0.54-1.28-0.81-1.94-1.08-2.39-1.08-2.39-4.19-3.06-1.39-0.07-2.79-0.09-4.19-0.06-1.26 0.02-2.51 0.04-3.81 0.06v-2c-3.26-1.63-6.87-1.29-10.5-1.43-1.25-0.28-1.25-0.28-2.53-0.57-0.29-0.65-0.58-1.3-0.88-1.98-0.37-0.66-0.74-1.33-1.12-2.02-2.57-0.55-4.84-0.88-7.44-1.06-7.19-0.55-7.19-0.55-9.03-2.47-2.92-2.81-7.91-1.95-11.8-2-1.91-0.06-3.82-0.25-5.72-0.47l-2-3c-2.8-0.41-5.4-0.63-8.22-0.73-0.81-0.04-1.63-0.08-2.46-0.12-2.61-0.13-5.21-0.23-7.82-0.34-1.76-0.08-3.51-0.16-5.27-0.25-7.61-0.4-7.61-0.4-15.2-0.56v-2c-3.12-0.06-6.25-0.09-9.38-0.12-1.33-0.03-1.33-0.03-2.69-0.06-0.85 0-1.7-0.01-2.58-0.02-0.78-0.01-1.57-0.02-2.38-0.03-2.2 0.05-2.2 0.05-3.97 2.23zm-263 10 1 2zm-702 213 1 2zm26 238 1 2zm27 62 1 3zm4 9 1 2zm14 27 1 3zm1062 63 1 3zm-40 54 1 2zm-31 39 1 3zm-876 17 1 2zm814 55 1 2zm-755 15 1 2zm728 13 1 2zm-4 4 1 2zm-4 4 1 2zm-640 68 1 2zm474 96 1 2zm-17 14 1 2zm-337 10 1 2z" fill="#F9FCFE"/>
<path transform="translate(875,1415)" d="m0 0v3z" fill="#000002"/>
<path transform="translate(1381,877)" d="m0 0 1 4z" fill="#000002"/>
<path transform="translate(614,288)" d="m0 0 4 1z" fill="#000002"/>
<path transform="translate(505,265)" d="m0 0 4 1z" fill="#000002"/>
<path transform="translate(672,1381)" d="m0 0c3 1 3 1 3 1z" fill="#000002"/>
<path transform="translate(640,301)" d="m0 0c3 1 3 1 3 1z" fill="#000002"/>
<path transform="translate(1025,1288)" d="m0 0 2 1z" fill="#000002"/>
<path transform="translate(329,1034)" d="m0 0 2 1z" fill="#000002"/>
<path transform="translate(1309,981)" d="m0 0 2 1z" fill="#000002"/>
<path transform="translate(1411,826)" d="m0 0 2 1z" fill="#000002"/>
<path transform="translate(1415,821)" d="m0 0 2 1z" fill="#000002"/>
<path transform="translate(839,404)" d="m0 0 2 1z" fill="#000002"/>
<path transform="translate(1293,345)" d="m0 0 2 1z" fill="#000002"/>
</svg>
