<?xml version="1.0" standalone="no"?>
<!DOCTYPE svg PUBLIC "-//W3C//DTD SVG 20010904//EN"
 "http://www.w3.org/TR/2001/REC-SVG-20010904/DTD/svg10.dtd">
<svg version="1.0" xmlns="http://www.w3.org/2000/svg"
 width="137.000000pt" height="137.000000pt" viewBox="0 0 137.000000 137.000000"
 preserveAspectRatio="xMidYMid meet">

<g transform="translate(0.000000,137.000000) scale(0.100000,-0.100000)"
fill="currentColor" stroke="none">
<path d="M655 1224 c-142 -34 -216 -78 -307 -182 -16 -18 -28 -34 -28 -37 0
-3 -10 -22 -23 -43 -21 -33 -44 -92 -75 -192 -6 -19 -16 -73 -21 -120 -5 -47
-13 -112 -17 -145 -4 -33 -12 -67 -20 -75 -36 -42 -28 -140 14 -187 57 -64 49
-63 507 -63 458 0 450 -1 507 63 42 46 49 144 15 186 -13 15 -36 94 -37 125
-1 53 -97 176 -137 176 -7 0 -13 4 -13 9 0 5 -10 12 -22 15 -45 12 -88 69 -88
116 0 42 33 90 70 101 46 14 86 8 81 -11 -3 -8 -7 -37 -9 -63 -5 -60 29 -117
88 -147 50 -25 90 -25 140 0 153 78 96 300 -77 300 -43 0 -52 4 -71 30 -30 40
-120 107 -157 116 -16 4 -36 11 -43 17 -13 10 -242 20 -277 11z m602 -286 c31
-29 30 -71 -3 -97 -15 -12 -34 -21 -44 -21 -29 0 -70 39 -70 68 0 33 37 72 69
72 13 0 35 -10 48 -22z m-135 -545 c18 -16 24 -68 10 -89 -21 -32 -53 -34
-447 -34 -394 0 -426 2 -447 34 -13 20 -8 69 9 88 15 17 42 18 436 18 377 0
422 -2 439 -17z"/>
</g>
</svg>
