<?xml version="1.0" standalone="no"?>
<!DOCTYPE svg PUBLIC "-//W3C//DTD SVG 20010904//EN"
 "http://www.w3.org/TR/2001/REC-SVG-20010904/DTD/svg10.dtd">
<svg version="1.0" xmlns="http://www.w3.org/2000/svg"
 width="99.000000pt" height="99.000000pt" viewBox="0 0 99.000000 99.000000"
 preserveAspectRatio="xMidYMid meet">

<g transform="translate(0.000000,99.000000) scale(0.100000,-0.100000)"
fill="#000000" stroke="none">
<path d="M335 877 c-66 -22 -99 -43 -144 -92 -54 -59 -82 -122 -89 -200 -9
-121 42 -225 149 -298 109 -75 243 -74 366 4 22 13 28 9 127 -90 104 -104 137
-121 144 -76 2 14 -28 50 -98 120 -55 55 -100 104 -100 108 0 5 9 21 19 36 11
14 27 53 36 86 59 200 -88 402 -298 411 -42 2 -89 -2 -112 -9z m213 -83 c158
-78 191 -293 66 -418 -92 -93 -241 -103 -346 -23 -116 89 -132 268 -34 384 69
82 211 108 314 57z"/>
</g>
</svg>
