<?xml version="1.0" standalone="no"?>
<!DOCTYPE svg PUBLIC "-//W3C//DTD SVG 20010904//EN"
 "http://www.w3.org/TR/2001/REC-SVG-20010904/DTD/svg10.dtd">
<svg version="1.0" xmlns="http://www.w3.org/2000/svg"
 width="90.000000pt" height="90.000000pt" viewBox="0 0 90.000000 90.000000"
 preserveAspectRatio="xMidYMid meet">

<g transform="translate(0.000000,90.000000) scale(0.100000,-0.100000)"
fill="currentColor" stroke="none">
<path d="M156 711 c-45 -46 -67 -75 -64 -87 6 -33 38 -28 79 12 l38 38 3 -155
3 -154 25 0 25 0 3 154 3 155 38 -38 c41 -40 73 -45 79 -12 5 22 -123 156
-148 156 -9 0 -46 -31 -84 -69z"/>
<path d="M634 766 c-10 -26 4 -48 28 -44 17 2 23 10 23 28 0 18 -6 26 -23 28
-13 2 -25 -3 -28 -12z"/>
<path d="M634 646 c-10 -26 4 -48 28 -44 17 2 23 10 23 28 0 18 -6 26 -23 28
-13 2 -25 -3 -28 -12z"/>
<path d="M637 534 c-4 -4 -7 -75 -7 -158 l0 -150 -39 38 c-41 40 -73 45 -79
12 -5 -22 123 -156 148 -156 25 0 153 134 148 156 -6 33 -38 28 -79 -12 l-38
-38 -3 155 c-3 146 -4 154 -23 157 -12 2 -24 0 -28 -4z"/>
<path d="M214 286 c-10 -26 4 -48 28 -44 17 2 23 10 23 28 0 18 -6 26 -23 28
-13 2 -25 -3 -28 -12z"/>
<path d="M214 166 c-10 -26 4 -48 28 -44 17 2 23 10 23 28 0 18 -6 26 -23 28
-13 2 -25 -3 -28 -12z"/>
</g>
</svg>
