<?xml version="1.0" encoding="UTF-8"?>
<svg version="1.1" viewBox="0 0 1600 1600" width="1280" height="1280" xmlns="http://www.w3.org/2000/svg">
<path transform="translate(783,159)" d="m0 0c4.52-0.02 9.04-0.04 13.6-0.05l4.62-0.03c2.21-0.01 4.42-0.01 6.62-0.02 0.69 0 1.38-0.01 2.09-0.01 4.88 0 4.88 0 7.11 1.11v3c1.77-0.02 1.77-0.02 3.57-0.04 9.69-0.06 19.4 0.03 29 0.35 1.01 0.02 2.01 0.05 3.04 0.07 1.39 0.05 1.39 0.05 2.82 0.11 0.82 0.02 1.65 0.05 2.5 0.08 2.02 0.43 2.02 0.43 4.02 3.43 2.12 0.51 2.12 0.51 4.57 0.51 1.34 0.05 1.34 0.05 2.72 0.11 0.93 0.02 1.87 0.04 2.83 0.07 1.42 0.05 1.42 0.05 2.87 0.1 2.34 0.08 4.67 0.15 7.01 0.21l1 4c1.25 0.06 1.25 0.06 2.52 0.11 1.09 0.07 2.17 0.13 3.29 0.2 1.62 0.09 1.62 0.09 3.27 0.18 3.29 0.57 3.7 1.24 5.92 3.51 2.73 0.58 2.73 0.58 5.69 0.69 0.99 0.06 1.99 0.13 3.01 0.2 0.76 0.03 1.52 0.07 2.3 0.11v2h2l1 2c1.07-0.08 2.14-0.16 3.25-0.25 4.41 0.29 4.94 1.06 7.75 4.25 2.63 1.25 2.63 1.25 5 2v2c3.96 0.66 7.92 1.32 12 2l1 3c0.99 0.33 1.98 0.66 3 1v2h2l1 4c3.47-0.5 3.47-0.5 7-1v2h2v2c1.49-0.5 1.49-0.5 3-1l3 2v2h2v2c1.07-0.27 2.14-0.54 3.25-0.81 1.86-0.1 1.86-0.1 3.75-0.19 2.12 2.19 2.12 2.19 4 5 1.64 1.36 3.31 2.7 5 4 1.81 1.62 1.81 1.62 3 3v2c0.6-0.21 1.2-0.41 1.81-0.62 2.19-0.38 2.19-0.38 5.19 1.62v2c0.99 0.33 1.98 0.66 3 1l2 1v2c1.98 0.66 3.96 1.32 6 2v4c1.49-0.5 1.49-0.5 3-1 2.19 1.31 2.19 1.31 4 3v2l4 2v2c0.99 0.33 1.98 0.66 3 1 3.91 3 7.14 5.93 10 10v2c0.76 0.27 1.53 0.54 2.31 0.81 2.58 1.14 3.96 2 5.69 4.19v2h2l1 2c0.65 0.27 1.29 0.54 1.96 0.82 2.04 1.18 2.04 1.18 3.05 3.42 0.34 1.31 0.34 1.31 0.68 2.64 0.23 0.86 0.46 1.72 0.7 2.61 0.3 1.24 0.3 1.24 0.61 2.51 0.19 0.77 0.38 1.53 0.58 2.32 0.14 0.55 0.28 1.11 0.42 1.68h4v2l4 2v2c0.62 0.19 1.24 0.37 1.88 0.56 3.15 2.14 3.21 4.85 4.12 8.44l2 1v2c0.99 0.33 1.98 0.66 3 1 2 2 2 2 2.94 5.5 0.73 3.74 0.73 3.74 4.06 5.5v3c0.99 0.33 1.98 0.66 3 1 2 3 2 3 2 7 2.47 0.99 2.47 0.99 5 2 0.12 1.11 0.25 2.23 0.38 3.38 0.27 3.65 0.27 3.65 2.62 5.62 0.27 2.69 0.09 5.29 0 8l5 1v7l4 2v8c0.64 0.22 1.28 0.43 1.93 0.66 2.07 1.34 2.07 1.34 2.79 3.87 0.11 0.98 0.23 1.96 0.34 2.97 0.29 2.91 0.29 2.91 0.94 5.5l3 2c0.46 2.84 0.5 5.6 0.59 8.47 0.14 0.83 0.27 1.67 0.41 2.53l3 2c0.59 3.43 0.91 6.77 1.17 10.2 0.19 1.94 0.5 3.86 0.83 5.77l3 2c0.43 2.06 0.43 2.06 0.51 4.57 0.04 0.9 0.07 1.79 0.11 2.72 0.02 0.93 0.04 1.87 0.07 2.83 0.05 1.42 0.05 1.42 0.1 2.87 0.08 2.34 0.15 4.67 0.21 7.01 0.99 0.33 1.98 0.66 3 1l2 48 4 2v47l-4 2c-0.02 0.71-0.04 1.42-0.06 2.15-0.17 6.68-0.36 13.4-0.57 20-0.1 3.44-0.2 6.87-0.29 10.3-0.1 3.94-0.22 7.89-0.35 11.8-0.03 1.23-0.06 2.47-0.09 3.74-0.03 1.14-0.07 2.28-0.12 3.46-0.04 1.51-0.04 1.51-0.08 3.06-0.15 0.79-0.29 1.58-0.44 2.4l-3 2c-0.46 2.48-0.46 2.48-0.41 5.38-0.02 1.06-0.04 2.13-0.06 3.23-0.01 1.12-0.02 2.24-0.03 3.39-0.02 2.21-0.05 4.42-0.09 6.62-0.01 1.48-0.01 1.48-0.03 2.98-0.12 0.79-0.25 1.58-0.38 2.4l-3 2c-0.8 2.65-0.8 2.65-1.19 5.62-0.16 1.01-0.31 2.01-0.48 3.04-0.11 0.77-0.22 1.55-0.33 2.34-0.99 0.33-1.98 0.66-3 1l-1 14c-0.99 0.33-1.98 0.66-3 1-0.06 1.16-0.06 1.16-0.11 2.34-0.07 1-0.13 2-0.2 3.04-0.09 1.49-0.09 1.49-0.18 3.02-0.17 0.86-0.34 1.72-0.51 2.6l-3 2c-0.69 2.58-0.69 2.58-1 5.5-0.38 2.97-0.38 2.97-1 5.5l-3 2c-0.33 1.15-0.66 2.31-1 3.5-1 3.5-1 3.5-4 5.5-0.5 1.9-0.5 1.9-0.56 4-0.23 3.79-0.23 3.79-2.44 6-0.1 0.8-0.21 1.61-0.31 2.44-0.69 2.56-0.69 2.56-3.19 4.12-0.83 0.48-1.65 0.95-2.5 1.44-0.64 2.07-0.64 2.07-1 4-0.99 0.33-1.98 0.66-3 1l-1 6h-3c-0.1 0.78-0.21 1.57-0.31 2.38-0.69 2.62-0.69 2.62-3.69 4.62-0.33 1.15-0.66 2.31-1 3.5-1 3.5-1 3.5-4 5.5-0.16 0.68-0.33 1.36-0.5 2.06-0.16 0.64-0.33 1.28-0.5 1.94-0.99 0.33-1.98 0.66-3 1-0.33 1.15-0.66 2.31-1 3.5-0.33 1.15-0.66 2.31-1 3.5-0.99 0.33-1.98 0.66-3 1-4.85 4.85-8.08 9.13-9 16-0.78 0.08-1.57 0.16-2.38 0.25-2.77 0.48-2.77 0.48-3.93 2.81-0.23 0.64-0.46 1.28-0.69 1.94h-2l-1 3c-2.06 0.69-2.06 0.69-4 1l-1 5h-3l-1 3c-2.06 0.69-2.06 0.69-4 1l-1 4c-2.31 0.33-4.62 0.66-7 1l-1 3c-0.99 0.33-1.98 0.66-3 1-1.22 2.5-1.22 2.5-2 5h-2l-1 3c-1.65 0.7-3.32 1.36-5 2l-1.5 1.5c-1.5 1.5-1.5 1.5-4.12 2.5-0.79 0.33-1.57 0.66-2.38 1l-1 3c-1.33 0.35-2.66 0.69-4 1-1.02 0.98-2.02 1.98-3 3h-2v2.31c-0.33 0.89-0.66 1.78-1 2.69-2.71 1.21-5.19 2.13-8 3-5.27 1.9-5.27 1.9-9 6h-3l-1 3c-0.77 0.11-1.54 0.22-2.34 0.33-1 0.16-2 0.32-3.04 0.48-0.99 0.15-1.99 0.3-3.02 0.46-2.93 0.52-2.93 0.52-4.6 3.73-2.33 0.33-4.67 0.67-7 1l-2 3c-2.16 0.51-2.16 0.51-4.62 0.69-0.82 0.06-1.64 0.13-2.48 0.2-0.94 0.05-0.94 0.05-1.9 0.11l-1 4-8 1v3c-1.22 0.14-2.43 0.29-3.69 0.44-4.69 0.56-4.69 0.56-9.31 1.56l-1 2c-3.18 0.47-6.33 0.79-9.54 1.04-2.27 0.19-2.27 0.19-5.46 0.96-0.7 1.32-1.37 2.65-2 4-3 0.79-3 0.79-6.56 1.19-4.04 0.13-4.04 0.13-7.44 1.81-1.74 0.19-3.49 0.32-5.24 0.43-1.6 0.11-1.6 0.11-3.23 0.22-2.26 0.15-4.52 0.29-6.78 0.42-1.61 0.12-1.61 0.12-3.24 0.23-0.99 0.07-1.97 0.13-2.98 0.19-2.57 0.27-2.57 0.27-3.95 2.02-2.75 2.6-6.53 1.9-10.1 1.88-0.87 0-1.74 0.01-2.64 0.01-2.89 0.02-5.77 0.01-8.66 0-2 0-4.01 0-6.01 0.01-4.2 0-8.41 0-12.6-0.02-5.39-0.02-10.8-0.01-16.2 0.01-4.14 0.01-8.28 0.01-12.4 0-1.99 0-3.97 0-5.96 0.01-2.78 0.01-5.55-0.01-8.33-0.02-0.82 0-1.65 0.01-2.49 0.02-4.41-0.05-6.92-0.39-10.2-3.41-2.66-0.56-2.66-0.56-5.57-0.66-1.59-0.11-1.59-0.11-3.22-0.22-1.1-0.06-2.2-0.12-3.33-0.18-2.2-0.13-4.39-0.27-6.58-0.41-0.96-0.06-1.93-0.11-2.93-0.17-2.37-0.36-2.37-0.36-4.37-2.36-3.42-0.26-6.8-0.37-10.2-0.39-2.15-0.07-2.15-0.07-5.77-0.61-1.16-1.98-1.16-1.98-2-4-2.58-0.77-2.58-0.77-5.5-1-2.97-0.31-2.97-0.31-5.5-1-1.34-2.06-1.34-2.06-2-4-1.89 0.12-1.89 0.12-3.81 0.25-2.24 0.01-2.24 0.01-4.19-0.25-0.47-0.64-0.95-1.28-1.44-1.94-1.36-2.26-1.36-2.26-3.73-2.55-2.28-0.24-4.54-0.41-6.83-0.51l-1-3c-2.97-0.33-5.94-0.66-9-1v-3c-2.97-0.66-5.94-1.32-9-2l-1-4c-1.11 0.04-2.23 0.08-3.38 0.12-3.62-0.12-3.62-0.12-5.62-2.12-1.11-0.29-2.23-0.58-3.38-0.88-3.72-1.15-5.25-2.09-7.62-5.12v-2c-0.63-0.04-1.25-0.07-1.9-0.11-0.82-0.07-1.63-0.13-2.48-0.2-1.21-0.09-1.21-0.09-2.46-0.18-2.16-0.51-2.16-0.51-4.16-3.51v-4c-0.6-0.12-1.2-0.25-1.81-0.38-2.19-0.62-2.19-0.62-5.19-2.62-2.63-0.17-2.63-0.17-5 0-0.29-0.85-0.58-1.69-0.88-2.56-2.06-4.28-5.91-6.22-9.84-8.63-2.61-2.07-3.33-3.66-4.28-6.81-1.39 0.09-1.39 0.09-2.81 0.19-3.19-0.19-3.19-0.19-5.07-1.57-1.12-1.62-1.12-1.62-1.12-3.62h-2c-0.25-0.8-0.5-1.61-0.75-2.44-0.41-0.84-0.83-1.69-1.25-2.56-1.89-0.68-1.89-0.68-4-1-2.92-1.67-3.83-2.41-4.75-5.69-0.12-1.14-0.12-1.14-0.25-2.31-0.56-0.04-1.11-0.08-1.69-0.12-2.9-1.1-4.21-2.92-6.09-5.33-2.16-2.75-4.4-5.06-7.41-6.86-2.71-2.53-2.54-5.11-2.81-8.69h-3l-1-4h-3c-0.37-1.42-0.37-1.42-0.75-2.88-0.91-3.21-0.91-3.21-3.31-4.31-0.64-0.27-1.28-0.53-1.94-0.81-0.5-1.49-0.5-1.49-1-3-1.32-3.13-1.32-3.13-3-6-0.99-0.33-1.98-0.66-3-1-2-3-2-3-1.94-5.56-0.02-0.81-0.04-1.61-0.06-2.44l-3-2-2-2v-3l-4-2v-4l-2-1c-0.49-1.78-0.49-1.78-0.88-3.94-0.44-2.17-0.44-2.17-1.12-4.06l-2-1c-2-1-2-1-2.63-2.85-0.33-1.45-0.62-2.91-0.88-4.37-0.16-0.59-0.32-1.18-0.49-1.78l-2-1c-0.12-1.11-0.25-2.23-0.38-3.38-0.73-4.25-1.34-4.26-4.62-6.62-0.37-1.99-0.71-3.99-1-6-1.42-1.75-1.42-1.75-3-3-1.43-2.87-1.33-5.73-1.52-8.91-0.32-2.48-0.32-2.48-3.48-4.09-0.51-2.82-0.51-2.82-0.69-6.12-0.06-1.1-0.13-2.2-0.2-3.33-0.03-0.84-0.07-1.68-0.11-2.55h-2c-2.36-3.55-2.38-5.8-2.66-9.94-0.17-2.28-0.17-2.28-2.34-4.06-1.15-2.3-1.15-3.72-1.21-6.28-0.03-0.84-0.06-1.68-0.09-2.55-0.05-1.78-0.09-3.56-0.13-5.34-0.03-0.84-0.06-1.68-0.09-2.55-0.03-1.16-0.03-1.16-0.06-2.34-0.27-2.34-0.27-2.34-3.42-3.94-0.51-2.73-0.51-2.73-0.69-6.19-0.06-1.24-0.13-2.49-0.19-3.77-0.22-6.34-0.2-12.7-0.12-19-0.99-0.33-1.98-0.66-3-1-0.05-13.5-0.08-27-0.1-40.6-0.01-6.28-0.03-12.6-0.05-18.8-0.02-6.05-0.03-12.1-0.04-18.2 0-2.32-0.01-4.63-0.02-6.95-0.02-3.23-0.02-6.46-0.02-9.7 0-0.96-0.01-1.93-0.02-2.92 0-0.88 0.01-1.76 0.01-2.66 0-0.77 0-1.53-0.01-2.32 0.25-1.87 0.25-1.87 2.25-3.87 0.42-3.04 0.42-3.04 0.53-6.62l0.21-4.02c0.1-2.12 0.2-4.24 0.29-6.35 0.09-2.04 0.2-4.09 0.31-6.13 0.06-1.22 0.11-2.44 0.17-3.7 0.52-3.4 1.37-4.58 3.49-7.18 0.49-2.01 0.49-2.01 0.51-4.11 0.04-0.75 0.07-1.51 0.11-2.28 0.02-0.78 0.04-1.56 0.07-2.36 0.03-0.79 0.07-1.59 0.1-2.4 0.08-1.95 0.15-3.9 0.21-5.85l4-2c-0.04-1.18-0.08-2.35-0.12-3.56 0-4.19 0.68-7.51 2.12-11.4l2-1c0.43-2.98 0.43-2.98 0.56-6.44 0.35-6.37 0.35-6.37 1.44-8.56h2c0.19-1.67 0.19-1.67 0.38-3.38 0.62-3.62 0.62-3.62 2.62-5.62h3v-12l4-2c0.22-1.58 0.22-1.58 0.44-3.19 0.66-4.49 2.25-7.66 5.56-10.8h3c0.19-1.95 0.19-1.95 0.38-3.94 0.21-2.21 0.21-2.21 0.62-4.06l2-1c0.73-2.31 1.4-4.65 2-7l4-1v-7c0.62-0.23 1.24-0.45 1.88-0.69 2.73-1.69 3.17-3.3 4.12-6.31h2l2-9h4c0.1-0.64 0.21-1.28 0.31-1.94 0.23-0.68 0.46-1.36 0.69-2.06 0.99-0.33 1.98-0.66 3-1 0.73-2.02 0.73-2.02 1-4l4-1v-6h3c0.12-0.8 0.25-1.61 0.38-2.44 0.2-0.84 0.41-1.69 0.62-2.56 2.49-1.25 3.41-0.78 6 0l-1-4h3c0.08-0.78 0.16-1.57 0.25-2.38 0.25-0.86 0.5-1.73 0.75-2.62 1.94-1.06 1.94-1.06 4-2 1.27-2.03 1.27-2.03 2-4h3c0.5-1.98 0.5-1.98 1-4 0.62-0.08 1.24-0.17 1.88-0.25 2.27-0.54 2.27-0.54 3.18-2.63 0.47-1.05 0.47-1.05 0.94-2.12 1.44-1.75 1.44-1.75 3-3h3l2-4h2l1-5h4l1-5c1.98 0.5 1.98 0.5 4 1l-1-3c2-2 2-2 5-2.38 3.12-0.28 3.12-0.28 4.38-2.68 0.2-0.64 0.41-1.28 0.62-1.94h4l-1-3c0.76-0.25 1.53-0.5 2.31-0.75 2.79-1.01 2.79-1.01 4.07-3.31 1.62-1.94 1.62-1.94 5.31-2.69 1.09-0.08 2.18-0.16 3.31-0.25v-2c5.75-1.12 5.75-1.12 8 0l-1-4c2.49-1.25 3.41-0.78 6 0l-1-4c4.45-0.5 4.45-0.5 9-1l1-4c1-1 1-1 4.56-1.06 1.14 0.02 2.27 0.04 3.44 0.06 0.14-0.64 0.29-1.28 0.44-1.94 0.56-2.06 0.56-2.06 1.56-3.06 2.33-0.04 4.67-0.04 7 0 0.2-0.64 0.41-1.29 0.62-1.95 1.38-2.05 1.38-2.05 4.2-2.66 1.09-0.05 2.18-0.09 3.3-0.14 1.1-0.06 2.2-0.11 3.33-0.17 0.84-0.03 1.68-0.05 2.55-0.08l1-4h7l1-4h12l2-4c8.41-0.5 8.41-0.5 17-1l2-4h15l2-4c14-0.67 28-1.16 42-1l2-4zm-219 105 1 2zm-9 8 1 4zm-31 46 1 2zm-4 10v5h1v-5h-1zm-5 6 1 4zm-31 239 1 2z" fill="#F9FCFE"/>
<path transform="translate(790 1013)" d="m0 0c1.17 0.01 2.34 0.01 3.54 0.02 1.26 0 2.52 0 3.82 0.01 1.34 0 2.68 0.01 4.02 0.02s2.69 0.01 4.03 0.01c3.3 0.02 6.6 0.03 9.91 0.05l1 3c20.8 0.33 41.6 0.66 63 1l1 4c1.16-0.01 1.16-0.01 2.35-0.03 3.55-0.04 7.1-0.07 10.6-0.09 1.22-0.02 2.44-0.03 3.7-0.05 6.44-0.04 12.2 0.07 18.3 2.17l2 2c2.39 0.33 2.39 0.33 5.15 0.31 1.54 0.04 1.54 0.04 3.1 0.08 2.16 0.03 4.33 0.06 6.49 0.09 1.02 0.03 2.05 0.05 3.1 0.08 0.94 0.02 1.88 0.03 2.85 0.04 0.76 0.14 1.52 0.27 2.31 0.4l2 3c2.88 0.31 5.61 0.47 8.5 0.5 2.89 0.04 5.61 0.2 8.5 0.5l2 3c5.09 1.57 10.6 1.27 15.9 1.43 3.09 0.57 3.09 0.57 4.51 2.62 0.19 0.64 0.38 1.29 0.58 1.95 1.2 0.05 2.4 0.1 3.64 0.15 1.58 0.08 3.16 0.15 4.73 0.23 0.8 0.03 1.59 0.06 2.41 0.09 5.99 0.31 5.99 0.31 8.22 2.53 3.56 0.6 7.12 0.96 10.7 1.34 3.51 0.71 3.96 1.24 6.29 3.66 2.85 0.44 5.62 0.51 8.5 0.6 1.24 0.2 1.24 0.2 2.5 0.4l2 3c3.15 0.56 6.22 0.86 9.41 1.09 4.72 0.46 6.4 1.56 9.59 4.91 2.49 0.37 2.49 0.37 5.06 0.07 2.6-0.22 2.6-0.22 4.94-0.07 0.42 0.47 0.85 0.94 1.29 1.43 2.77 2.56 6.28 2.42 9.89 2.76 0.75 0.08 1.5 0.16 2.28 0.25 1.84 0.2 3.69 0.38 5.54 0.56l1 3c1.84 0.73 1.84 0.73 4 1.07 2.18 0.41 2.18 0.41 4 0.93l1 2c2.58 0.47 2.58 0.47 5.56 0.63 1.01 0.07 2.02 0.15 3.07 0.23 0.78 0.04 1.56 0.09 2.37 0.14l1 4c1.26 0.04 1.26 0.04 2.55 0.08 1.64 0.09 1.64 0.09 3.32 0.17 1.09 0.05 2.18 0.1 3.31 0.14 0.93 0.21 1.86 0.41 2.82 0.61 0.68 1.33 1.35 2.66 2 4 2.51 0.6 2.51 0.6 5.37 0.57 4.35 0.1 6.29 0.65 9.63 3.43 1.99 0.69 3.99 1.36 6 2l3 2c2.51 0.46 2.51 0.46 5.18 0.63 0.9 0.07 1.81 0.15 2.73 0.23 0.69 0.04 1.38 0.09 2.09 0.14l1 3c2.09 1.03 2.09 1.03 4.56 1.69 0.82 0.25 1.65 0.5 2.5 0.76 0.64 0.18 1.28 0.37 1.94 0.55v2c0.63 0.12 1.27 0.25 1.93 0.37 0.83 0.17 1.65 0.34 2.5 0.51 0.83 0.16 1.65 0.32 2.5 0.49 0.68 0.21 1.36 0.42 2.07 0.63l1 2c1.11 0.29 2.22 0.58 3.37 0.88 3.63 1.12 3.63 1.12 5.04 3.19 1.42 2.2 1.42 2.2 3.96 2.18 0.87-0.08 1.73-0.16 2.63-0.25 2.62-0.25 2.62-0.25 5 0 1.62 1.94 1.62 1.94 3 4 0.99 0.33 1.98 0.66 3 1l1 2c2.76 0.57 5.53 0.9 8.33 1.25 3.22 0.91 3.86 2.04 5.67 4.75 2.57 0.65 2.57 0.65 5 1l1 2c2.11 0.91 2.11 0.91 4.56 1.63 1.24 0.39 1.24 0.39 2.5 0.79 0.64 0.19 1.28 0.38 1.94 0.58v2c0.99 0.33 1.98 0.66 3 1 0.99 0.33 1.98 0.66 3 1v2c1.64 0.41 1.64 0.41 3.31 0.82 3.59 1.15 4.26 1.66 6.69 4.18 1.01 0.31 2.02 0.62 3.06 0.94 2.94 1.06 2.94 1.06 4.31 3.19 0.31 0.93 0.31 0.93 0.63 1.87 0.88-0.08 1.77-0.16 2.68-0.25 4.07 0.31 5.43 1.45 8.32 4.25l2 3c1.67 0.19 1.67 0.19 3.37 0.38 3.63 0.62 3.63 0.62 5.88 3.12 0.57 0.83 1.15 1.65 1.75 2.5 0.99 0.33 1.98 0.66 3 1v2c0.92 0.07 1.85 0.13 2.81 0.19 3.19 0.81 3.19 0.81 4.81 3.31 0.45 0.83 0.91 1.65 1.38 2.5 2.08 0.88 2.08 0.88 4 1v2c1.19 0.19 2.39 0.37 3.62 0.57 4.51 1.08 6.2 3.22 8.93 6.82 2.12 2.36 4.41 2.92 7.45 3.61l2 1v3c0.83 0.41 0.83 0.41 1.68 0.82 1.15 0.58 1.15 0.58 2.32 1.18 0.88 0.46 1.77 0.91 2.68 1.38 2.32 1.62 2.32 1.62 3.13 3.81 0.06 0.6 0.12 1.2 0.19 1.81h3l1 2c1.11 0.48 2.22 0.95 3.37 1.44 3.13 1.35 4.49 2.09 6.63 4.56l2 1 1 3c1.69 1.72 1.69 1.72 3.75 3.38 4.18 3.55 8.02 7.34 11.8 11.3 2.19 2.36 2.19 2.36 4.54 3.17 1.9 1.14 1.9 1.14 2.51 3.31 0.04 0.81 0.09 1.62 0.14 2.46 0.05 0.82 0.11 1.63 0.17 2.48 0.02 0.62 0.05 1.25 0.08 1.89h2v3c0.74 0.23 1.48 0.46 2.25 0.69 3.38 1.62 4.79 3.12 6.75 6.31 0.25 3.32 0.25 3.32 0 6 0.99 0.33 1.98 0.66 3 1 2 3 2 3 2.43 5.57 0.35 2.79 0.35 2.79 3.57 4.43 0.41 2.43 0.41 2.43 0.47 5.46 0.03 1.09 0.06 2.19 0.1 3.31 0.02 1.73 0.02 1.73 0.05 3.48 0.05 2.26 0.11 4.51 0.17 6.77 0.01 1 0.03 2.01 0.05 3.04 0.16 3.04 0.6 5.95 1.16 8.94h2c0.18 3.32 0.18 3.32 0 7-0.5 0.49-0.99 0.98-1.5 1.48-1.67 1.4-1.67 1.4-1.84 3.42 0.01 0.7 0.03 1.4 0.04 2.12 0.01 0.75 0.02 1.51 0.03 2.29 0.04 1.18 0.04 1.18 0.08 2.38 0.01 0.8 0.03 1.6 0.04 2.42 0.03 1.96 0.09 3.93 0.15 5.89l-4-1-1 9h-3l-2 9h-4v9c-1.98 0.5-1.98 0.5-4 1-1.75 2.39-2.88 4.26-3.38 7.19-0.62 1.81-0.62 1.81-3.19 3.06-0.8 0.25-1.61 0.5-2.43 0.75l-1 7h-7v2l-5 1c-0.13 0.93-0.13 0.93-0.25 1.88-0.75 2.12-0.75 2.12-2.75 3.25-0.66 0.29-1.32 0.58-2 0.87l-1 2c-2.65 0.6-5.3 0.75-8 1l-1 4c-1.06 0.04-2.12 0.08-3.21 0.12-1.39 0.06-2.78 0.13-4.17 0.2-0.7 0.02-1.4 0.04-2.12 0.06-2.28 0.09-2.28 0.09-5.5 0.62l-2 3c-2.6 0.43-2.6 0.43-5.96 0.51-1.9 0.05-1.9 0.05-3.83 0.11-1.42 0.02-2.83 0.04-4.24 0.06-1.49 0.03-2.98 0.07-4.46 0.1-17.7 0.38-35.4 0.37-53.2 0.37-5.09 0-10.2 0.01-15.3 0.01-10 0.01-20.1 0.02-30.1 0.02-12 0-24.1 0.01-36.2 0.02-29.1 0.02-58.2 0.03-87.3 0.04-9.63 0-19.3 0-28.9 0.01h-2.06-8.27c-47.1 0.02-94.2 0.04-141 0.04h-11.1-2.22c-7.41 0.01-14.8 0.01-22.2 0.01h-4.45c-47.8 0.01-95.6 0.03-143 0.06-34.4 0.03-68.8 0.05-103 0.05h-2.15c-15.5 0.01-31 0.01-46.6 0.01h-18.7-2.07c-22 0-44 0.02-66 0.04-22.8 0.02-45.5 0.03-68.3 0.02-13.1-0.01-26.2 0-39.4 0.02-8.76 0.01-17.5 0.01-26.3 0-4.99-0.01-9.99-0.01-15 0.01-4.54 0.01-9.08 0.01-13.6-0.01-1.64 0-3.27 0-4.91 0.01-2.22 0.02-4.43 0.01-6.64-0.01h-3.72c-3.69-0.59-4.71-1.72-7.09-4.5-2.25-0.57-2.25-0.57-4.57-0.56-3.8-0.11-4.84-0.74-7.43-3.44-2.26-0.99-2.26-0.99-4.69-1.68-0.81-0.26-1.62-0.51-2.45-0.77-0.62-0.18-1.23-0.36-1.86-0.55v-3h-4v-3c-1.22-0.06-2.44-0.12-3.69-0.18-3.42-0.43-4.37-0.86-7.25-3.07-2.06-2.75-2.77-4.36-3.06-7.75-0.99-0.33-1.98-0.66-3-1l-1-2c-0.66-0.29-1.32-0.57-2-0.87-2-1.13-2-1.13-2.75-3.25-0.09-0.62-0.17-1.24-0.25-1.88h-2c-0.27-1.13-0.54-2.27-0.82-3.43-0.39-1.18-0.78-2.36-1.18-3.57-0.99-0.33-1.98-0.66-3-1-0.5-2-0.98-4-1.4-6.02-0.48-2.2-0.48-2.2-2.73-3.85-2.77-3.14-2.18-6.03-2.01-10.1 0.04-0.68 0.09-1.35 0.14-2.05h-3c-1.35-2.7-1.34-5.11-1.57-8.12-0.08-1.1-0.16-2.19-0.25-3.32-0.06-0.84-0.12-1.69-0.18-2.56-0.99-0.33-1.98-0.66-3-1v-25h3c0.03-1.04 0.07-2.09 0.11-3.17 0.07-1.38 0.13-2.76 0.2-4.14 0.02-0.69 0.04-1.38 0.07-2.09 0.27-5.2 0.27-5.2 2.13-7.36 0.74-0.61 0.74-0.61 1.49-1.24 0.14-1.15 0.28-2.31 0.43-3.5 0.68-4.19 1.34-4.15 4.57-6.5 0.43-1.65 0.85-3.3 1.23-4.97 1.3-3.45 3.74-6.03 6.11-8.82 1.74-2.31 2.7-4.48 3.66-7.21h4l1-5h3c0.1-0.64 0.2-1.28 0.31-1.93 0.23-0.68 0.45-1.37 0.69-2.07 0.99-0.33 1.98-0.66 3-1 0.16-0.66 0.33-1.32 0.5-2 0.16-0.66 0.33-1.32 0.5-2 0.99-0.33 1.98-0.66 3-1 0.18-0.96 0.18-0.96 0.37-1.93 0.31-1.02 0.31-1.02 0.63-2.07 2.37-1.18 2.37-1.18 5-2 0.99-0.33 1.98-0.66 3-1 0.73-2.01 0.73-2.01 1-4 0.61-0.08 1.23-0.16 1.87-0.25 2.31-0.56 2.31-0.56 3.38-2.81 0.24-0.64 0.49-1.28 0.75-1.94h2c0.18-0.96 0.18-0.96 0.37-1.93 0.31-1.02 0.31-1.02 0.63-2.07 2.95-1.47 5.74-1.06 9-1l2-4h2l1-5 4 1-1-4c3.22-2.15 4.28-2.2 8-2l1-4h4l1-4 5-1 1-3c3.56-1.18 3.56-1.18 7-2l1-4h3l2-3c0.94-0.14 1.89-0.29 2.87-0.43 3.65-0.66 4.79-1.78 7.13-4.57 0.99 0.33 1.98 0.66 3 1l1-5h6c0.18-0.64 0.37-1.28 0.56-1.93 1.44-2.07 1.44-2.07 5.06-2.82 1.11-0.08 2.23-0.16 3.38-0.25l1-4h9l1-4c1.5-1.62 1.5-1.62 3-3l1-2h8c0.14-0.64 0.28-1.28 0.43-1.93 0.57-2.07 0.57-2.07 1.57-3.07 2-0.04 4-0.04 6 0v-2c2.95-1.47 5.74-1.06 9-1v-4c3.21-1.6 6.43-1.05 10-1 0.03-0.89 0.03-0.89 0.06-1.81 0.94-2.19 0.94-2.19 4.31-3.81 1.2-0.46 2.39-0.91 3.63-1.38l3-2c3.18-0.12 3.18-0.12 6 0 0.28-0.64 0.57-1.28 0.87-1.93 1.13-2.07 1.13-2.07 3.13-3.07 1.54-0.07 3.08-0.08 4.62-0.06 0.82 0.01 1.64 0.02 2.48 0.03 0.62 0.01 1.25 0.02 1.9 0.03l1-4h9l1-4c2.4-1.2 3.95-1.1 6.62-1.06 0.82 0.01 1.64 0.02 2.48 0.03 0.62 0.01 1.25 0.02 1.9 0.03v-4h9l2-4c1.99-0.38 3.99-0.71 6-1 0.64-0.75 0.64-0.75 1.3-1.51 2.53-2.22 4.59-1.78 7.88-1.67 1.09 0.02 2.18 0.05 3.3 0.08 1.24 0.05 1.24 0.05 2.52 0.1 0.14-0.64 0.28-1.28 0.43-1.93 0.57-2.07 0.57-2.07 1.57-3.07 2.51-0.2 5.03-0.32 7.55-0.42 2.61-0.33 2.61-0.33 3.91-2.6 1.54-1.98 1.54-1.98 4.24-2.37 0.98 0.05 1.97 0.1 2.98 0.14 1 0.04 1.99 0.08 3.02 0.11 0.75 0.05 1.51 0.1 2.3 0.14l1-4h9l1-4c2.84-1.42 5.66-1.32 8.8-1.52 2.28-0.27 2.28-0.27 3.58-1.98 2.47-2.28 4.76-1.91 8.05-2 4.68-0.12 7.01-0.44 10.6-3.5 2.75-0.91 4.36-1.11 7.18-1.06 1.26 0.02 2.52 0.04 3.82 0.06l2-4h12l2-4c3.11-0.5 3.11-0.5 6.87-0.56 4.86 0.15 4.86 0.15 8.96-1.95 3.62-2.48 7.65-1.8 11.9-1.67 1.33 0.02 1.33 0.02 2.69 0.04 2.18 0.03 4.37 0.08 6.56 0.14 0.14-0.64 0.28-1.28 0.43-1.93 0.57-2.07 0.57-2.07 1.57-3.07 3.72-0.2 7.44-0.32 11.2-0.42 3.89-0.29 3.89-0.29 6.74-2.6 4.24-2.71 7.56-2.43 12.5-2.23 1.25 0.03 1.25 0.03 2.52 0.06 2.04 0.05 4.07 0.12 6.11 0.19l2-4c0.68-0.01 1.36-0.03 2.06-0.04 3.08-0.08 6.17-0.17 9.25-0.27 1.07-0.02 2.14-0.04 3.25-0.07 1.02-0.03 2.05-0.07 3.11-0.1 0.95-0.03 1.9-0.06 2.87-0.08 2.89-0.51 3.51-1.36 5.46-3.44 6.34-1.72 13.5-1.12 20.1-1.06 0.96 0.01 1.92 0.01 2.91 0.01 2.34 0.02 4.68 0.03 7.03 0.05l2-4c0.76 0 1.52-0.01 2.3-0.02 7.2-0.08 14.4-0.17 21.6-0.26 3.7-0.05 7.4-0.1 11.1-0.14 3.57-0.04 7.14-0.08 10.7-0.13 1.36-0.02 2.71-0.04 4.07-0.05 8.13-0.07 15.6-3.2 22.9-3.51zm131 13.1 4 1zm-388 34 1 2zm-125 49 1 2zm-154 99 4 1zm-20 24 1 3z" fill="#F9FCFE"/>
<path transform="translate(948,199)" d="m0 0h5v1h-5v-1z" fill="#FAFDFF"/>
<path transform="translate(1279,1158)" d="m0 0 2 1z" fill="#FAFDFF"/>
<path transform="translate(331,1149)" d="m0 0 2 1z" fill="#FAFDFF"/>
<path transform="translate(544,287)" d="m0 0 2 1z" fill="#FAFDFF"/>
<path transform="translate(966,207)" d="m0 0 2 1z" fill="#FAFDFF"/>
</svg>
